<svg id="svg" version="1.1" xmlns="http://www.w3.org/2000/svg" xmlns:xlink="http://www.w3.org/1999/xlink" width="400" height="310.6796116504854" viewBox="0, 0, 400,310.6796116504854"><g id="svgg"><path id="path0" d="M258.223 0.282 C 258.166 0.438,256.721 0.632,255.012 0.715 C 251.436 0.887,250.476 1.116,250.715 1.740 C 250.850 2.093,250.379 2.176,248.245 2.176 C 246.144 2.176,245.522 2.282,245.182 2.701 C 244.819 3.149,244.820 3.188,245.192 2.964 C 245.461 2.802,245.556 2.819,245.438 3.008 C 245.334 3.178,244.379 3.347,243.316 3.386 C 241.298 3.458,240.102 3.863,240.414 4.367 C 240.520 4.539,239.930 4.662,239.003 4.662 C 237.323 4.662,236.067 5.115,236.373 5.610 C 236.519 5.846,234.069 6.095,233.041 5.948 C 232.924 5.932,232.739 6.195,232.632 6.533 C 232.459 7.078,231.387 7.369,230.225 7.185 C 230.097 7.165,229.992 7.375,229.992 7.653 C 229.992 8.087,229.920 8.098,229.466 7.730 C 229.103 7.436,229.013 7.425,229.175 7.695 C 229.468 8.181,228.993 8.357,226.532 8.677 C 226.424 8.691,226.262 8.982,226.173 9.324 C 226.047 9.804,225.749 9.946,224.864 9.946 C 223.979 9.946,223.681 10.087,223.555 10.567 C 223.429 11.050,223.132 11.189,222.222 11.189 C 221.313 11.189,221.015 11.328,220.889 11.810 C 220.781 12.224,220.465 12.432,219.946 12.432 C 218.845 12.432,218.182 12.737,218.182 13.242 C 218.182 13.514,217.842 13.675,217.267 13.675 C 216.705 13.675,216.185 13.915,215.917 14.296 C 215.678 14.638,215.089 14.950,214.609 14.990 C 214.087 15.033,213.679 15.277,213.596 15.594 C 213.519 15.887,213.156 16.170,212.789 16.222 C 212.422 16.274,211.983 16.632,211.814 17.016 C 211.588 17.532,211.246 17.716,210.514 17.716 C 209.794 17.716,209.467 17.886,209.324 18.337 C 209.216 18.679,208.942 18.959,208.717 18.959 C 208.088 18.959,206.666 19.771,206.894 20.000 C 207.005 20.111,206.724 20.202,206.268 20.202 C 205.717 20.202,205.439 20.368,205.439 20.697 C 205.439 20.970,205.164 21.265,204.828 21.352 C 204.491 21.440,204.132 21.777,204.030 22.100 C 203.867 22.612,202.955 22.885,201.943 22.725 C 201.814 22.705,201.692 22.828,201.671 22.999 C 201.649 23.170,201.608 23.485,201.579 23.699 C 201.550 23.912,201.371 24.057,201.181 24.019 C 199.250 23.639,200.267 26.518,202.872 28.804 C 207.160 32.569,210.428 35.677,212.881 38.323 C 214.276 39.828,215.655 41.308,215.945 41.613 C 217.190 42.921,219.915 46.119,220.179 46.582 C 220.337 46.859,221.195 47.995,222.084 49.106 C 222.973 50.218,224.204 51.896,224.818 52.836 C 225.432 53.776,226.367 55.158,226.896 55.908 C 227.425 56.657,228.303 58.026,228.847 58.949 C 229.392 59.873,230.147 61.148,230.526 61.783 C 230.905 62.418,231.723 63.916,232.342 65.113 C 232.962 66.309,233.668 67.638,233.911 68.065 C 234.154 68.493,234.491 69.192,234.658 69.619 C 234.826 70.047,235.095 70.606,235.256 70.862 C 235.417 71.119,235.850 72.028,236.219 72.883 C 236.588 73.737,237.150 74.996,237.469 75.680 C 238.007 76.835,238.334 77.686,239.321 80.497 C 239.531 81.096,239.893 82.005,240.124 82.517 C 240.356 83.030,240.679 84.009,240.842 84.693 C 241.005 85.377,241.348 86.566,241.603 87.335 C 243.131 91.940,244.424 97.105,244.755 99.922 C 244.875 100.948,245.103 102.030,245.262 102.327 C 245.421 102.625,245.756 104.862,246.008 107.300 C 246.259 109.738,246.620 112.782,246.809 114.064 C 247.320 117.528,247.233 130.276,246.667 134.732 C 246.406 136.783,246.105 139.510,245.997 140.793 C 245.889 142.075,245.616 143.893,245.389 144.833 C 245.163 145.773,244.886 147.172,244.774 147.941 C 244.495 149.848,243.400 154.723,242.993 155.866 C 242.810 156.379,242.486 157.578,242.273 158.530 C 242.059 159.483,241.707 160.592,241.491 160.995 C 241.275 161.399,240.919 162.438,240.699 163.304 C 240.181 165.349,239.426 167.465,238.846 168.502 C 238.592 168.955,238.384 169.506,238.384 169.724 C 238.384 169.943,238.104 170.726,237.762 171.464 C 237.420 172.201,236.846 173.469,236.485 174.281 C 235.254 177.052,234.274 179.176,234.011 179.643 C 233.867 179.899,233.218 181.158,232.570 182.440 C 231.922 183.722,231.314 184.841,231.221 184.926 C 231.056 185.076,229.376 187.860,229.060 188.507 C 228.670 189.305,223.285 197.133,221.680 199.235 C 217.466 204.755,210.573 212.132,205.836 216.190 C 202.212 219.294,201.057 220.479,200.599 221.561 C 200.021 222.926,200.037 223.075,200.777 223.310 C 201.119 223.419,201.399 223.711,201.399 223.960 C 201.399 224.214,201.804 224.494,202.319 224.597 C 202.825 224.699,203.228 224.870,203.214 224.978 C 203.143 225.550,203.305 225.881,203.652 225.868 C 204.699 225.829,205.103 226.004,205.284 226.573 C 205.392 226.915,205.720 227.195,206.012 227.195 C 206.305 227.195,206.784 227.475,207.076 227.817 C 207.369 228.159,207.960 228.438,208.389 228.438 C 208.886 228.438,209.169 228.613,209.169 228.920 C 209.169 229.184,209.727 229.651,210.410 229.957 C 211.093 230.263,211.566 230.599,211.462 230.704 C 211.357 230.809,211.672 230.994,212.162 231.116 C 212.652 231.238,213.217 231.560,213.417 231.831 C 213.777 232.318,213.899 232.364,215.038 232.440 C 215.360 232.461,215.696 232.758,215.785 233.100 C 215.909 233.571,216.209 233.722,217.029 233.722 C 217.848 233.722,218.149 233.872,218.272 234.343 C 218.396 234.817,218.696 234.965,219.530 234.965 C 220.353 234.965,220.675 235.120,220.824 235.587 C 220.977 236.069,221.294 236.208,222.243 236.208 C 223.258 236.208,223.465 236.314,223.465 236.830 C 223.465 237.172,223.570 237.463,223.699 237.477 C 224.982 237.618,225.789 237.866,226.155 238.232 C 226.396 238.473,227.107 238.767,227.734 238.884 C 228.361 239.002,229.152 239.357,229.492 239.673 C 229.854 240.011,230.569 240.249,231.219 240.249 C 231.993 240.249,232.447 240.437,232.717 240.870 C 233.005 241.332,233.445 241.493,234.424 241.497 C 235.149 241.499,235.952 241.652,236.208 241.837 C 236.586 242.108,236.556 242.133,236.053 241.969 C 235.542 241.802,235.503 241.838,235.835 242.173 C 236.304 242.645,236.305 242.645,238.503 242.696 C 239.882 242.728,240.204 242.842,240.335 243.341 C 240.467 243.848,240.816 243.962,242.469 244.040 C 243.976 244.112,244.444 244.244,244.444 244.600 C 244.444 245.157,245.883 245.489,248.407 245.514 C 249.390 245.524,250.194 245.663,250.194 245.822 C 250.194 246.097,250.908 246.413,252.020 246.629 C 252.298 246.684,253.617 246.739,254.952 246.752 C 256.287 246.765,257.316 246.880,257.238 247.009 C 256.724 247.858,257.274 247.930,264.676 247.980 C 269.910 248.015,270.468 248.070,270.597 248.565 C 270.816 249.400,280.917 249.447,281.508 248.615 C 281.853 248.129,282.546 248.063,287.724 248.021 C 295.119 247.962,295.062 247.967,295.328 247.319 C 295.512 246.870,295.972 246.771,297.970 246.752 C 301.000 246.723,301.852 246.573,302.288 245.993 C 302.521 245.681,303.226 245.526,304.463 245.514 C 307.028 245.489,308.469 245.160,308.469 244.600 C 308.469 244.243,308.941 244.111,310.472 244.040 C 312.035 243.966,312.567 243.813,312.898 243.340 C 313.209 242.896,313.687 242.735,314.692 242.735 C 315.744 242.735,316.139 242.591,316.395 242.113 C 316.670 241.599,317.045 241.492,318.571 241.492 C 320.024 241.492,320.380 241.399,320.249 241.057 C 320.019 240.457,320.371 240.303,322.223 240.190 C 323.433 240.117,323.857 239.961,323.964 239.549 C 324.043 239.250,324.364 238.995,324.680 238.982 C 325.863 238.933,326.457 238.719,326.721 238.248 C 326.870 237.981,327.395 237.762,327.888 237.762 C 328.380 237.762,328.985 237.559,329.234 237.311 C 329.482 237.063,329.802 236.958,329.945 237.078 C 330.088 237.198,330.040 237.078,329.838 236.812 C 329.523 236.396,329.645 236.318,330.717 236.255 C 331.459 236.211,332.207 235.936,332.570 235.573 C 332.904 235.239,333.436 234.965,333.751 234.965 C 334.067 234.965,334.563 234.701,334.855 234.379 C 335.147 234.057,335.798 233.711,336.302 233.610 C 336.836 233.503,337.218 233.229,337.218 232.953 C 337.218 232.607,337.555 232.479,338.462 232.479 C 339.473 232.479,339.705 232.369,339.705 231.892 C 339.705 231.468,340.005 231.248,340.784 231.102 C 341.378 230.991,341.972 230.720,342.105 230.500 C 342.238 230.281,342.605 230.006,342.920 229.890 C 343.235 229.773,343.566 229.399,343.655 229.058 C 343.777 228.593,344.080 228.438,344.869 228.438 C 345.714 228.438,345.921 228.316,345.921 227.817 C 345.921 227.361,346.128 227.195,346.698 227.195 C 347.268 227.195,347.475 227.029,347.475 226.573 C 347.475 226.172,347.695 225.938,348.096 225.913 C 348.438 225.892,348.858 225.839,349.029 225.796 C 349.200 225.754,349.479 225.701,349.650 225.680 C 349.821 225.659,349.926 225.470,349.883 225.260 C 349.841 225.050,350.137 224.829,350.541 224.767 C 350.945 224.706,351.346 224.388,351.432 224.061 C 351.518 223.733,351.794 223.465,352.047 223.465 C 352.299 223.465,352.579 223.186,352.668 222.844 C 352.758 222.502,352.919 222.212,353.028 222.198 C 354.356 222.038,355.362 221.420,355.068 220.944 C 354.974 220.792,355.198 220.668,355.566 220.668 C 355.948 220.668,356.298 220.429,356.381 220.112 C 356.461 219.806,356.832 219.416,357.206 219.246 C 357.580 219.076,357.852 218.766,357.809 218.559 C 357.766 218.352,358.024 218.182,358.382 218.182 C 358.771 218.182,359.098 217.932,359.195 217.560 C 359.285 217.218,359.564 216.939,359.817 216.939 C 360.069 216.939,360.341 216.688,360.421 216.382 C 360.501 216.077,360.873 215.687,361.247 215.516 C 361.621 215.346,361.892 215.037,361.849 214.829 C 361.807 214.622,361.876 214.469,362.005 214.489 C 362.641 214.589,362.957 214.394,363.111 213.808 C 363.204 213.453,363.570 213.087,363.924 212.994 C 364.279 212.902,364.569 212.642,364.569 212.417 C 364.569 212.192,364.836 211.923,365.162 211.819 C 365.489 211.716,365.943 211.400,366.172 211.117 C 366.524 210.683,366.521 210.644,366.152 210.866 C 365.856 211.045,365.787 211.014,365.938 210.771 C 366.060 210.573,366.361 210.412,366.607 210.412 C 367.012 210.412,367.192 210.036,367.092 209.402 C 367.072 209.274,367.225 209.204,367.432 209.246 C 367.640 209.289,367.953 209.009,368.128 208.625 C 368.303 208.240,368.692 207.925,368.994 207.925 C 369.377 207.925,369.542 207.682,369.542 207.112 C 369.542 206.452,369.659 206.329,370.163 206.461 C 370.658 206.591,370.785 206.471,370.785 205.876 C 370.785 205.335,370.957 205.128,371.406 205.128 C 371.817 205.128,372.028 204.921,372.028 204.517 C 372.028 204.165,372.391 203.714,372.883 203.457 C 373.353 203.211,373.737 202.892,373.737 202.748 C 373.737 202.604,373.842 202.521,373.970 202.564 C 374.099 202.607,374.204 202.354,374.204 202.002 C 374.204 201.644,374.344 201.449,374.522 201.559 C 374.697 201.667,374.821 201.640,374.796 201.499 C 374.664 200.736,374.881 200.155,375.299 200.155 C 375.560 200.155,375.906 199.805,376.069 199.376 C 376.232 198.948,376.536 198.633,376.744 198.677 C 376.951 198.721,377.201 198.337,377.297 197.824 C 377.394 197.312,377.577 196.927,377.703 196.970 C 378.151 197.121,378.554 197.044,378.518 196.814 C 378.338 195.676,378.611 194.872,379.176 194.872 C 379.632 194.872,379.798 194.665,379.798 194.095 C 379.798 193.518,379.963 193.318,380.438 193.318 C 380.790 193.318,380.991 193.178,380.886 193.007 C 380.780 192.836,380.842 192.696,381.023 192.696 C 381.204 192.696,381.335 192.591,381.315 192.463 C 381.162 191.495,381.406 190.814,381.875 190.895 C 382.213 190.954,382.471 190.711,382.602 190.210 C 382.714 189.782,382.968 189.468,383.167 189.510 C 383.365 189.553,383.545 189.448,383.566 189.277 C 383.588 189.106,383.640 188.827,383.683 188.656 C 383.726 188.485,383.778 188.082,383.800 187.760 C 383.821 187.438,384.118 187.101,384.460 187.012 C 384.956 186.882,385.082 186.588,385.082 185.559 C 385.082 184.849,385.206 184.345,385.357 184.438 C 385.751 184.682,386.266 183.963,386.397 182.988 C 386.458 182.528,386.629 182.042,386.777 181.908 C 386.926 181.773,386.944 181.872,386.818 182.129 C 386.692 182.385,386.810 182.324,387.079 181.992 C 387.348 181.660,387.568 180.926,387.568 180.360 C 387.568 179.535,387.692 179.332,388.197 179.332 C 388.783 179.332,389.413 177.868,389.179 177.052 C 389.138 176.909,389.388 176.718,389.735 176.627 C 390.232 176.497,390.365 176.206,390.365 175.255 C 390.365 174.267,390.475 174.048,390.969 174.048 C 391.457 174.048,391.591 173.795,391.668 172.727 C 391.735 171.803,391.904 171.406,392.230 171.406 C 392.739 171.406,392.756 171.339,392.813 169.110 C 392.845 167.867,392.951 167.598,393.395 167.634 C 393.851 167.670,393.954 167.362,394.032 165.734 C 394.112 164.046,394.204 163.792,394.731 163.792 C 395.265 163.792,395.338 163.570,395.338 161.948 C 395.338 160.377,395.430 160.075,395.960 159.907 C 396.301 159.798,396.597 159.474,396.617 159.187 C 396.776 156.838,397.128 155.087,397.543 154.588 C 397.756 154.331,397.991 153.135,398.064 151.932 C 398.161 150.322,398.352 149.589,398.787 149.154 C 399.285 148.656,399.378 148.097,399.378 145.610 C 399.378 143.849,399.504 142.657,399.689 142.657 C 399.893 142.657,400.000 136.234,400.000 124.009 C 400.000 109.301,399.918 105.360,399.611 105.357 C 399.352 105.353,399.377 105.250,399.689 105.046 C 400.022 104.827,400.054 104.673,399.800 104.507 C 399.589 104.369,399.399 103.089,399.334 101.373 C 399.250 99.170,399.104 98.386,398.727 98.110 C 398.289 97.789,398.084 96.485,397.829 92.395 C 397.826 92.358,397.650 92.394,397.436 92.476 C 397.183 92.572,397.019 92.271,396.965 91.611 C 396.919 91.054,396.825 90.319,396.756 89.977 C 396.686 89.635,396.618 89.057,396.605 88.692 C 396.591 88.303,396.324 87.962,395.960 87.866 C 395.432 87.728,395.338 87.442,395.338 85.976 C 395.338 84.567,395.224 84.188,394.716 83.916 C 394.201 83.640,394.095 83.265,394.095 81.730 C 394.095 80.710,393.990 79.892,393.862 79.912 C 393.039 80.042,392.852 79.777,392.852 78.480 C 392.852 77.420,392.702 76.990,392.230 76.696 C 391.879 76.477,391.607 75.967,391.604 75.527 C 391.597 74.266,391.257 73.349,390.795 73.349 C 390.514 73.349,390.365 72.986,390.365 72.299 C 390.365 71.278,389.738 70.350,389.326 70.762 C 389.214 70.874,389.120 70.558,389.117 70.060 C 389.112 69.001,388.863 68.563,388.112 68.285 C 387.717 68.140,387.568 67.741,387.568 66.832 C 387.568 65.786,387.465 65.579,386.946 65.579 C 386.440 65.579,386.325 65.372,386.325 64.462 C 386.325 63.606,386.179 63.307,385.703 63.183 C 385.149 63.038,384.860 62.009,385.045 60.839 C 385.078 60.629,384.624 60.492,384.108 60.557 C 384.000 60.571,383.829 60.170,383.728 59.668 C 383.597 59.012,383.411 58.805,383.070 58.936 C 382.692 59.082,382.595 58.860,382.595 57.842 C 382.595 57.140,382.490 56.582,382.362 56.602 C 381.679 56.710,381.352 56.503,381.352 55.962 C 381.352 55.631,381.210 55.271,381.036 55.164 C 380.862 55.057,380.810 54.824,380.920 54.646 C 381.047 54.440,380.881 54.399,380.459 54.533 C 379.880 54.717,379.798 54.621,379.798 53.760 C 379.798 53.039,379.633 52.735,379.176 52.615 C 378.832 52.525,378.555 52.191,378.555 51.867 C 378.555 51.489,378.335 51.282,377.933 51.282 C 377.414 51.282,377.312 51.075,377.312 50.025 C 377.312 49.018,377.208 48.787,376.788 48.860 C 376.450 48.919,376.195 48.677,376.068 48.174 C 375.948 47.703,375.664 47.414,375.348 47.440 C 375.025 47.467,374.825 47.255,374.825 46.886 C 374.825 46.551,374.519 46.176,374.126 46.031 C 373.741 45.888,373.444 45.648,373.465 45.497 C 373.539 44.961,373.179 44.401,371.989 43.199 C 371.327 42.530,370.785 41.767,370.785 41.504 C 370.785 41.241,370.680 41.042,370.552 41.062 C 369.864 41.171,369.542 40.960,369.542 40.404 C 369.542 39.848,369.219 39.637,368.531 39.746 C 368.403 39.766,368.298 39.433,368.298 39.005 C 368.298 38.436,368.133 38.228,367.677 38.228 C 367.262 38.228,367.055 38.021,367.055 37.607 C 367.055 37.265,366.950 37.002,366.822 37.022 C 366.191 37.122,365.870 36.930,365.722 36.364 C 365.625 35.992,365.298 35.742,364.909 35.742 C 364.465 35.742,364.258 35.544,364.258 35.120 C 364.258 34.706,364.051 34.499,363.636 34.499 C 363.222 34.499,363.015 34.292,363.015 33.877 C 363.015 33.463,362.808 33.256,362.393 33.256 C 362.042 33.256,361.772 33.048,361.772 32.780 C 361.772 32.518,361.551 32.219,361.282 32.116 C 361.012 32.012,360.666 31.597,360.512 31.193 C 360.346 30.755,359.979 30.458,359.604 30.458 C 359.235 30.458,358.974 30.253,358.974 29.963 C 358.974 29.691,358.696 29.395,358.356 29.306 C 358.016 29.217,357.806 29.034,357.890 28.900 C 357.973 28.765,357.552 28.366,356.954 28.013 C 356.356 27.660,355.866 27.227,355.866 27.050 C 355.866 26.873,355.761 26.745,355.633 26.766 C 354.634 26.923,354.002 26.668,354.002 26.107 C 354.002 25.705,353.794 25.486,353.414 25.486 C 353.043 25.486,352.752 25.193,352.628 24.696 C 352.519 24.262,352.288 23.994,352.115 24.100 C 351.942 24.207,351.517 23.933,351.169 23.491 C 350.822 23.050,350.260 22.688,349.920 22.688 C 349.509 22.688,349.381 22.559,349.536 22.300 C 349.672 22.074,349.525 22.106,349.186 22.378 C 348.656 22.800,348.621 22.793,348.804 22.303 C 348.953 21.906,348.811 21.713,348.270 21.577 C 347.865 21.476,347.467 21.140,347.386 20.830 C 347.302 20.506,346.820 20.176,346.248 20.050 C 345.703 19.931,345.182 19.636,345.089 19.396 C 344.997 19.155,344.657 18.959,344.333 18.959 C 343.952 18.959,343.745 18.740,343.745 18.337 C 343.745 17.808,343.538 17.716,342.347 17.716 C 341.062 17.716,340.948 17.652,340.948 16.939 C 340.948 16.327,340.790 16.162,340.207 16.162 C 339.724 16.162,339.409 15.942,339.302 15.531 C 339.211 15.184,339.020 14.921,338.877 14.946 C 338.172 15.070,336.888 14.890,337.012 14.685 C 337.302 14.206,336.415 13.675,335.324 13.675 C 334.935 13.675,334.608 13.426,334.511 13.054 C 334.384 12.567,334.087 12.432,333.142 12.432 C 332.142 12.432,331.935 12.325,331.935 11.810 C 331.935 11.293,331.728 11.189,330.702 11.189 C 329.788 11.189,329.384 11.028,329.138 10.567 C 328.925 10.169,328.487 9.946,327.921 9.946 C 327.369 9.946,326.876 9.701,326.605 9.294 C 326.303 8.839,325.727 8.592,324.695 8.476 C 323.883 8.384,323.130 8.166,323.022 7.992 C 322.903 7.800,322.998 7.764,323.262 7.900 C 323.502 8.025,323.427 7.907,323.095 7.638 C 322.763 7.369,322.075 7.148,321.566 7.148 C 321.056 7.148,320.385 6.918,320.074 6.637 C 319.763 6.356,318.808 6.058,317.952 5.976 C 316.549 5.841,316.242 5.632,316.358 4.895 C 316.378 4.767,315.495 4.662,314.395 4.662 C 312.669 4.662,312.369 4.577,312.199 4.040 C 312.032 3.514,311.729 3.419,310.220 3.419 C 309.225 3.419,308.253 3.247,308.020 3.030 C 307.685 2.720,307.645 2.720,307.820 3.030 C 307.941 3.244,307.908 3.419,307.747 3.419 C 307.586 3.419,307.381 3.139,307.291 2.797 C 307.146 2.241,306.868 2.176,304.651 2.176 C 302.828 2.176,302.072 2.052,301.787 1.709 C 301.477 1.336,301.480 1.243,301.801 1.243 C 302.021 1.243,302.124 1.166,302.029 1.071 C 301.934 0.976,300.197 0.818,298.170 0.720 C 296.142 0.622,294.437 0.420,294.380 0.271 C 294.240 -0.094,258.357 -0.083,258.223 0.282 " stroke="none" fill="#f49b13" fill-rule="evenodd"></path><path id="path1" d="M105.632 0.253 C 105.569 0.431,104.188 0.650,102.564 0.740 C 99.152 0.930,98.213 1.146,98.213 1.746 C 98.213 2.111,94.620 2.443,93.162 2.212 C 93.034 2.192,92.929 2.455,92.929 2.797 C 92.929 3.358,90.329 3.744,88.500 3.456 C 88.372 3.435,88.267 3.567,88.267 3.748 C 88.267 3.929,88.129 3.992,87.960 3.887 C 87.791 3.782,87.728 3.894,87.821 4.135 C 87.950 4.472,87.545 4.613,86.056 4.748 C 84.757 4.866,84.034 5.084,83.849 5.414 C 83.698 5.684,83.179 5.905,82.696 5.905 C 81.050 5.905,79.832 6.276,80.004 6.724 C 80.119 7.024,79.896 7.148,79.244 7.148 C 77.682 7.148,76.617 7.585,76.933 8.096 C 77.033 8.259,76.792 8.402,76.398 8.415 C 75.714 8.438,75.340 8.497,74.281 8.747 C 74.025 8.808,73.715 9.103,73.592 9.402 C 73.400 9.870,72.181 10.154,71.096 9.982 C 70.967 9.962,70.862 10.225,70.862 10.567 C 70.862 11.070,70.655 11.189,69.777 11.189 C 69.029 11.189,68.572 11.382,68.304 11.810 C 68.028 12.253,67.579 12.432,66.747 12.432 C 65.786 12.432,65.579 12.542,65.579 13.054 C 65.579 13.420,65.356 13.695,65.035 13.723 C 64.736 13.749,64.351 13.802,64.180 13.842 C 64.009 13.882,63.695 13.930,63.481 13.950 C 63.267 13.970,63.092 14.196,63.092 14.452 C 63.092 14.741,62.800 14.918,62.326 14.918 C 61.896 14.918,61.424 15.173,61.250 15.499 C 61.079 15.818,60.519 16.164,60.005 16.266 C 59.492 16.369,58.787 16.737,58.440 17.084 C 58.093 17.432,57.586 17.716,57.314 17.716 C 57.041 17.716,56.745 17.995,56.656 18.337 C 56.516 18.870,55.851 19.130,54.953 19.002 C 54.835 18.985,54.655 19.234,54.553 19.556 C 54.451 19.877,54.023 20.227,53.602 20.332 C 53.181 20.438,52.836 20.732,52.836 20.985 C 52.836 21.245,52.553 21.445,52.185 21.445 C 51.796 21.445,51.469 21.695,51.372 22.067 C 51.283 22.409,50.946 22.706,50.624 22.727 C 50.302 22.749,49.899 22.801,49.728 22.844 C 49.557 22.887,49.293 22.939,49.141 22.960 C 48.989 22.982,48.884 23.244,48.908 23.543 C 48.932 23.842,48.741 24.087,48.485 24.087 C 47.836 24.087,47.290 24.629,47.469 25.095 C 47.561 25.336,47.356 25.486,46.935 25.486 C 46.512 25.486,46.189 25.723,46.089 26.107 C 45.999 26.449,45.663 26.746,45.341 26.768 C 45.019 26.789,44.585 26.824,44.376 26.845 C 44.167 26.867,43.852 27.175,43.674 27.531 C 43.497 27.887,43.190 28.124,42.992 28.058 C 42.794 27.992,42.535 28.246,42.415 28.622 C 42.176 29.375,40.762 30.744,40.207 30.759 C 40.013 30.765,39.781 31.053,39.690 31.400 C 39.599 31.747,39.408 32.010,39.265 31.985 C 38.539 31.857,38.178 32.054,38.345 32.489 C 38.466 32.805,38.269 33.063,37.756 33.258 C 37.332 33.419,36.985 33.764,36.985 34.025 C 36.985 34.292,36.713 34.499,36.364 34.499 C 35.949 34.499,35.742 34.706,35.742 35.120 C 35.742 35.535,35.535 35.742,35.120 35.742 C 34.713 35.742,34.499 35.949,34.499 36.343 C 34.499 36.673,34.219 37.032,33.877 37.141 C 33.535 37.249,33.256 37.538,33.256 37.783 C 33.256 38.185,32.879 38.365,32.246 38.265 C 32.117 38.245,32.012 38.521,32.012 38.879 C 32.012 39.258,31.765 39.595,31.420 39.685 C 31.093 39.770,30.757 40.107,30.672 40.433 C 30.581 40.778,30.245 41.026,29.866 41.026 C 29.379 41.026,29.215 41.221,29.215 41.803 C 29.215 42.230,29.110 42.548,28.982 42.510 C 28.700 42.425,26.900 44.080,26.845 44.474 C 26.824 44.629,26.789 45.019,26.768 45.341 C 26.746 45.663,26.439 46.002,26.084 46.095 C 25.730 46.187,25.364 46.552,25.272 46.904 C 25.180 47.257,25.015 47.492,24.906 47.426 C 24.619 47.253,24.087 47.941,24.087 48.485 C 24.087 48.741,23.842 48.932,23.543 48.908 C 23.244 48.884,22.982 48.989,22.960 49.141 C 22.939 49.293,22.904 49.546,22.883 49.703 C 22.861 49.860,22.529 50.351,22.145 50.793 C 21.760 51.236,21.445 51.801,21.445 52.050 C 21.445 52.300,21.166 52.653,20.824 52.836 C 20.482 53.019,20.202 53.445,20.202 53.782 C 20.202 54.120,19.922 54.636,19.580 54.928 C 19.239 55.221,18.959 55.693,18.959 55.977 C 18.959 56.261,18.694 56.562,18.370 56.647 C 18.018 56.739,17.694 57.199,17.564 57.792 C 17.444 58.337,17.150 58.859,16.909 58.951 C 16.669 59.043,16.472 59.313,16.472 59.552 C 16.472 59.790,16.193 60.264,15.851 60.606 C 15.509 60.948,15.327 61.228,15.447 61.228 C 15.566 61.228,15.497 61.395,15.291 61.601 C 15.086 61.806,14.918 62.220,14.918 62.522 C 14.918 62.824,14.639 63.220,14.297 63.403 C 13.890 63.621,13.675 64.054,13.675 64.657 C 13.675 65.372,13.535 65.579,13.054 65.579 C 12.542 65.579,12.432 65.786,12.432 66.747 C 12.432 67.579,12.253 68.028,11.810 68.304 C 11.382 68.572,11.189 69.029,11.189 69.777 C 11.189 70.655,11.070 70.862,10.567 70.862 C 9.955 70.862,9.771 71.404,9.898 72.834 C 9.928 73.172,9.694 73.473,9.325 73.569 C 8.983 73.659,8.685 73.996,8.664 74.318 C 8.642 74.639,8.590 75.043,8.547 75.214 C 8.504 75.385,8.452 75.882,8.430 76.320 C 8.409 76.765,8.254 77.030,8.080 76.923 C 7.715 76.697,7.148 78.032,7.148 79.119 C 7.148 79.535,6.869 80.155,6.527 80.497 C 6.110 80.914,5.905 81.533,5.905 82.375 C 5.905 83.202,5.693 83.859,5.284 84.298 C 4.864 84.749,4.662 85.395,4.662 86.288 C 4.662 87.216,4.492 87.732,4.092 88.017 C 3.647 88.333,3.505 88.900,3.446 90.586 C 3.386 92.313,3.251 92.833,2.773 93.167 C 2.275 93.517,2.176 93.969,2.176 95.900 C 2.176 97.669,2.074 98.213,1.743 98.213 C 1.137 98.213,0.879 99.436,0.729 103.030 C 0.657 104.740,0.464 106.185,0.299 106.242 C -0.094 106.378,-0.109 141.323,0.284 141.466 C 0.441 141.523,0.654 143.108,0.758 144.988 C 0.988 149.136,0.997 149.223,1.189 149.031 C 1.753 148.467,2.176 149.794,2.176 152.127 C 2.176 154.288,2.272 154.769,2.797 155.245 C 3.286 155.687,3.419 156.202,3.419 157.653 C 3.419 159.237,3.507 159.522,4.040 159.661 C 4.572 159.800,4.662 160.085,4.662 161.634 C 4.662 162.667,4.816 163.539,5.021 163.666 C 5.261 163.814,5.298 163.743,5.132 163.451 C 4.944 163.118,5.002 163.125,5.379 163.481 C 5.668 163.753,5.904 164.560,5.947 165.421 C 6.026 166.992,6.269 167.639,6.717 167.470 C 6.869 167.413,7.039 167.855,7.095 168.454 C 7.151 169.052,7.418 169.786,7.687 170.085 C 7.957 170.385,8.068 170.629,7.936 170.629 C 7.803 170.629,7.844 170.810,8.027 171.031 C 8.210 171.251,8.444 171.912,8.548 172.499 C 8.651 173.087,9.008 173.821,9.341 174.131 C 9.673 174.440,9.946 174.967,9.946 175.301 C 9.946 175.635,10.225 176.082,10.567 176.296 C 10.937 176.527,11.189 177.021,11.189 177.516 C 11.189 178.666,11.486 179.332,11.999 179.332 C 12.250 179.332,12.432 179.648,12.432 180.083 C 12.432 181.156,12.741 181.818,13.242 181.818 C 13.480 181.818,13.693 182.098,13.714 182.440 C 13.735 182.782,13.788 183.201,13.831 183.372 C 13.873 183.543,13.926 183.823,13.947 183.994 C 13.969 184.165,14.180 184.305,14.418 184.305 C 14.662 184.305,14.935 184.762,15.047 185.361 C 15.156 185.942,15.452 186.589,15.704 186.798 C 15.956 187.007,16.162 187.375,16.162 187.616 C 16.162 187.857,16.361 188.130,16.604 188.223 C 16.847 188.317,17.265 188.942,17.534 189.612 C 17.802 190.283,18.232 190.831,18.490 190.831 C 18.797 190.831,18.959 191.134,18.959 191.708 C 18.959 192.214,19.254 192.862,19.658 193.243 C 20.717 194.239,21.599 195.425,21.615 195.871 C 21.623 196.091,21.797 196.235,22.003 196.193 C 22.209 196.150,22.378 196.384,22.378 196.713 C 22.378 197.041,22.808 197.741,23.334 198.267 C 23.860 198.793,24.192 199.223,24.073 199.223 C 23.953 199.223,24.028 199.431,24.240 199.686 C 24.451 199.940,24.731 200.082,24.863 200.001 C 24.995 199.919,25.278 200.275,25.491 200.791 C 25.705 201.307,25.952 201.657,26.041 201.569 C 26.281 201.329,27.064 202.972,26.864 203.296 C 26.770 203.449,26.980 203.574,27.332 203.574 C 27.692 203.574,27.972 203.777,27.972 204.038 C 27.972 204.293,28.252 204.676,28.594 204.890 C 28.936 205.103,29.215 205.524,29.215 205.825 C 29.215 206.164,29.451 206.371,29.837 206.371 C 30.179 206.371,30.458 206.499,30.458 206.654 C 30.458 207.050,33.727 210.412,34.112 210.412 C 34.285 210.412,34.499 210.692,34.589 211.033 C 34.678 211.375,34.958 211.655,35.210 211.655 C 35.463 211.655,35.743 211.935,35.832 212.277 C 35.921 212.618,36.202 212.898,36.456 212.898 C 36.710 212.898,37.007 213.254,37.116 213.688 C 37.225 214.122,37.443 214.398,37.600 214.301 C 37.758 214.204,38.033 214.398,38.213 214.733 C 38.392 215.068,38.818 215.431,39.161 215.540 C 39.503 215.648,39.782 215.867,39.782 216.024 C 39.782 216.379,41.639 218.182,42.004 218.182 C 42.150 218.182,42.269 218.389,42.269 218.642 C 42.269 218.895,42.613 219.189,43.035 219.295 C 43.456 219.400,43.885 219.753,43.988 220.078 C 44.151 220.591,44.459 220.729,45.261 220.649 C 45.368 220.638,45.620 220.953,45.822 221.348 C 46.023 221.743,46.415 222.028,46.691 221.981 C 46.973 221.933,47.283 222.172,47.394 222.525 C 47.504 222.871,47.798 223.155,48.046 223.155 C 48.295 223.155,48.657 223.504,48.852 223.932 C 49.106 224.489,49.450 224.709,50.070 224.709 C 50.546 224.709,51.034 224.870,51.156 225.067 C 51.307 225.311,51.238 225.342,50.942 225.163 C 50.570 224.939,50.568 224.978,50.932 225.426 C 51.166 225.715,51.587 225.952,51.867 225.952 C 52.147 225.952,52.550 226.232,52.764 226.573 C 52.977 226.915,53.454 227.195,53.823 227.195 C 54.192 227.195,54.402 227.287,54.289 227.400 C 53.905 227.784,54.776 228.438,55.671 228.438 C 56.358 228.438,56.566 228.582,56.566 229.060 C 56.566 229.471,56.773 229.681,57.176 229.681 C 57.512 229.681,57.932 229.952,58.109 230.283 C 58.303 230.645,58.832 230.924,59.434 230.983 C 60.112 231.049,60.552 231.313,60.793 231.799 C 60.989 232.194,61.237 232.509,61.344 232.498 C 62.191 232.413,63.161 232.514,63.004 232.671 C 62.632 233.043,63.680 233.722,64.624 233.722 C 65.480 233.722,65.734 233.981,65.616 234.732 C 65.595 234.860,66.122 234.965,66.786 234.965 C 67.731 234.965,68.028 235.100,68.155 235.587 C 68.280 236.063,68.579 236.208,69.435 236.208 C 70.049 236.208,70.552 236.358,70.552 236.541 C 70.552 237.143,71.404 237.742,72.076 237.613 C 72.456 237.539,72.967 237.734,73.282 238.073 C 73.584 238.397,74.303 238.744,74.880 238.846 C 75.458 238.948,76.316 239.305,76.786 239.640 C 77.260 239.977,78.147 240.249,78.776 240.249 C 79.415 240.249,79.832 240.378,79.730 240.544 C 79.437 241.018,80.653 241.492,82.165 241.492 C 83.243 241.492,83.604 241.621,83.742 242.055 C 83.877 242.481,84.283 242.636,85.395 242.688 C 87.320 242.779,87.956 242.989,87.956 243.533 C 87.956 243.869,88.405 243.978,89.785 243.978 C 91.352 243.978,91.637 244.067,91.776 244.600 C 91.887 245.024,92.219 245.234,92.822 245.259 C 93.718 245.298,96.502 245.510,97.189 245.591 C 97.395 245.616,97.501 245.738,97.424 245.862 C 97.169 246.275,98.335 246.509,101.321 246.643 C 103.617 246.747,104.359 246.892,104.659 247.298 C 104.995 247.751,105.945 247.838,111.879 247.960 C 115.637 248.037,118.637 248.221,118.545 248.370 C 118.453 248.519,118.701 248.638,119.096 248.635 C 119.673 248.632,119.722 248.572,119.347 248.329 C 118.999 248.104,119.163 248.027,119.999 248.023 C 120.854 248.020,121.196 248.183,121.454 248.718 C 121.640 249.103,121.801 249.242,121.813 249.029 C 121.824 248.815,121.982 248.640,122.163 248.640 C 122.344 248.640,122.426 248.747,122.346 248.877 C 122.266 249.007,122.957 249.155,123.882 249.205 C 125.051 249.269,125.563 249.182,125.563 248.917 C 125.563 248.708,125.651 248.624,125.758 248.731 C 125.865 248.839,126.355 248.718,126.846 248.464 C 127.702 248.022,127.740 248.032,127.761 248.710 C 127.781 249.353,127.804 249.363,128.017 248.820 C 128.302 248.092,128.341 248.088,135.597 248.022 C 140.942 247.974,141.484 247.918,141.999 247.365 C 142.471 246.858,143.047 246.749,145.561 246.690 C 147.211 246.652,148.561 246.507,148.562 246.369 C 148.562 246.230,148.694 246.198,148.854 246.297 C 149.015 246.397,149.259 246.300,149.398 246.083 C 149.672 245.654,150.017 245.575,152.603 245.346 C 153.543 245.263,154.557 245.171,154.856 245.142 C 155.155 245.112,155.400 244.838,155.400 244.533 C 155.400 244.053,155.694 243.978,157.576 243.978 C 159.544 243.978,159.751 243.919,159.751 243.357 C 159.751 242.812,159.959 242.735,161.423 242.735 C 162.733 242.735,163.186 242.603,163.521 242.124 C 163.845 241.658,164.373 241.491,165.733 241.424 C 167.193 241.352,167.519 241.237,167.520 240.793 C 167.521 240.355,167.796 240.249,168.920 240.249 C 169.697 240.249,170.319 240.102,170.319 239.919 C 170.319 239.738,170.450 239.671,170.610 239.771 C 170.771 239.870,171.025 239.731,171.175 239.463 C 171.325 239.194,171.928 238.914,172.515 238.840 C 173.102 238.766,173.756 238.467,173.969 238.177 C 174.181 237.886,174.747 237.630,175.226 237.607 C 176.305 237.557,176.845 237.240,176.845 236.656 C 176.845 236.353,177.191 236.208,177.912 236.208 C 178.706 236.208,179.030 236.049,179.176 235.587 C 179.352 235.035,180.417 234.744,181.585 234.928 C 181.713 234.948,181.818 234.685,181.818 234.343 C 181.818 233.857,182.025 233.722,182.773 233.722 C 183.679 233.722,184.770 233.048,184.424 232.702 C 184.335 232.613,184.832 232.444,185.527 232.327 C 186.222 232.209,186.791 231.992,186.791 231.844 C 186.791 231.696,187.279 231.344,187.876 231.061 C 188.473 230.777,188.884 230.421,188.790 230.269 C 188.696 230.117,188.837 229.975,189.104 229.953 C 189.370 229.932,189.728 229.880,189.899 229.837 C 190.070 229.794,190.350 229.742,190.521 229.720 C 190.692 229.699,190.831 229.402,190.831 229.060 C 190.831 228.497,191.784 228.202,192.583 228.516 C 192.692 228.559,192.897 228.279,193.039 227.894 C 193.184 227.503,193.560 227.195,193.893 227.195 C 194.227 227.195,194.560 226.922,194.651 226.573 C 194.748 226.202,195.075 225.952,195.464 225.952 C 195.822 225.952,196.115 225.812,196.115 225.641 C 196.115 225.470,196.329 225.330,196.591 225.330 C 196.853 225.330,197.147 225.121,197.245 224.866 C 197.343 224.610,197.544 224.476,197.691 224.567 C 197.839 224.658,198.138 224.448,198.355 224.099 C 198.573 223.751,198.931 223.465,199.152 223.465 C 199.774 223.465,199.910 222.729,199.451 221.845 C 199.031 221.036,196.260 218.182,195.894 218.182 C 195.154 218.182,183.372 206.588,183.372 205.860 C 183.372 205.640,183.092 205.311,182.751 205.128 C 182.409 204.945,182.129 204.660,182.129 204.495 C 182.129 204.330,181.570 203.652,180.886 202.989 C 180.202 202.325,179.643 201.626,179.643 201.435 C 179.643 201.244,179.510 201.088,179.348 201.088 C 179.187 201.088,178.526 200.284,177.880 199.301 C 177.234 198.318,176.551 197.374,176.362 197.203 C 175.969 196.848,173.785 193.629,173.177 192.510 C 172.954 192.099,172.653 191.764,172.508 191.764 C 172.363 191.764,172.104 191.362,171.933 190.871 C 171.762 190.380,171.119 189.262,170.504 188.387 C 169.889 187.513,169.386 186.594,169.386 186.346 C 169.386 186.097,169.116 185.705,168.787 185.474 C 168.457 185.243,168.086 184.640,167.962 184.135 C 167.839 183.630,167.479 182.883,167.163 182.476 C 166.847 182.068,166.589 181.505,166.589 181.224 C 166.589 180.943,166.309 180.474,165.967 180.181 C 165.625 179.888,165.346 179.329,165.346 178.938 C 165.346 178.547,165.066 177.987,164.724 177.694 C 164.382 177.402,164.103 176.828,164.103 176.420 C 164.103 176.012,163.900 175.510,163.652 175.305 C 163.405 175.099,163.034 174.418,162.828 173.790 C 162.623 173.163,162.276 172.370,162.058 172.028 C 161.840 171.686,161.567 170.887,161.451 170.252 C 161.335 169.617,161.049 168.939,160.815 168.744 C 160.581 168.550,160.295 167.881,160.179 167.257 C 160.063 166.633,159.787 165.843,159.565 165.501 C 159.343 165.159,159.066 164.250,158.949 163.481 C 158.832 162.712,158.535 161.850,158.288 161.566 C 158.042 161.282,157.731 160.303,157.597 159.391 C 157.463 158.478,157.125 157.312,156.845 156.799 C 156.565 156.286,156.331 155.307,156.324 154.623 C 156.317 153.939,156.041 152.821,155.711 152.137 C 155.343 151.374,155.106 150.218,155.100 149.146 C 155.094 148.146,154.839 146.816,154.504 146.038 C 154.117 145.138,153.850 143.521,153.713 141.259 C 153.599 139.378,153.276 137.071,152.994 136.131 C 152.244 133.632,152.260 113.346,153.013 111.340 C 153.296 110.586,153.600 108.444,153.718 106.368 C 153.862 103.848,154.106 102.316,154.508 101.416 C 154.831 100.690,155.094 99.380,155.100 98.463 C 155.106 97.490,155.356 96.305,155.711 95.571 C 156.041 94.887,156.317 93.699,156.324 92.929 C 156.332 92.072,156.576 91.170,156.954 90.598 C 157.294 90.085,157.573 89.174,157.574 88.573 C 157.575 87.973,157.837 86.993,158.157 86.396 C 158.477 85.800,158.839 84.715,158.963 83.986 C 159.086 83.257,159.360 82.487,159.571 82.276 C 159.783 82.064,160.044 81.350,160.151 80.689 C 160.259 80.028,160.547 79.260,160.791 78.982 C 161.036 78.704,161.337 77.988,161.460 77.389 C 161.583 76.791,161.948 75.865,162.271 75.332 C 162.595 74.799,162.859 74.154,162.859 73.898 C 162.859 73.642,163.139 73.077,163.481 72.642 C 163.823 72.208,164.103 71.560,164.103 71.202 C 164.103 70.844,164.382 70.272,164.724 69.930 C 165.066 69.588,165.346 69.048,165.346 68.729 C 165.346 68.410,165.617 67.805,165.948 67.383 C 166.279 66.962,166.647 66.233,166.765 65.762 C 166.883 65.292,167.172 64.833,167.406 64.744 C 167.640 64.654,167.832 64.342,167.832 64.052 C 167.832 63.762,168.182 63.050,168.609 62.471 C 169.037 61.892,169.386 61.242,169.386 61.027 C 169.386 60.813,169.569 60.525,169.793 60.388 C 170.017 60.252,170.379 59.695,170.598 59.152 C 170.818 58.609,171.194 58.089,171.435 57.996 C 171.676 57.904,171.873 57.554,171.873 57.219 C 171.873 56.884,172.116 56.366,172.414 56.068 C 172.713 55.770,173.097 55.291,173.269 55.003 C 174.487 52.963,176.372 50.359,176.728 50.223 C 176.964 50.132,177.156 49.851,177.156 49.598 C 177.156 49.345,177.331 49.025,177.546 48.889 C 177.760 48.752,178.347 48.011,178.850 47.242 C 179.354 46.472,180.019 45.563,180.328 45.221 C 180.637 44.880,181.518 43.913,182.286 43.074 C 183.055 42.235,183.683 41.431,183.683 41.287 C 183.683 41.143,183.893 41.026,184.149 41.026 C 184.406 41.026,184.619 40.851,184.623 40.637 C 184.633 40.157,189.482 35.151,192.977 32.012 C 194.405 30.730,196.193 29.087,196.950 28.361 C 197.707 27.634,198.449 27.040,198.599 27.040 C 198.748 27.040,198.969 26.725,199.089 26.340 C 199.209 25.956,199.463 25.540,199.653 25.417 C 200.083 25.139,199.461 24.046,198.941 24.165 C 198.754 24.207,198.601 24.093,198.601 23.909 C 198.601 23.441,197.795 22.688,197.294 22.688 C 197.063 22.688,196.672 22.409,196.426 22.067 C 196.179 21.725,195.799 21.445,195.580 21.445 C 195.362 21.445,194.913 21.200,194.583 20.901 C 193.397 19.825,193.070 19.621,192.861 19.830 C 192.745 19.946,192.513 19.798,192.347 19.500 C 192.180 19.202,191.771 18.959,191.438 18.959 C 191.039 18.959,190.831 18.746,190.831 18.337 C 190.831 17.819,190.624 17.716,189.588 17.716 C 188.552 17.716,188.345 17.612,188.345 17.094 C 188.345 16.752,188.145 16.472,187.901 16.472 C 187.657 16.472,187.238 16.254,186.971 15.986 C 186.704 15.719,186.341 15.590,186.164 15.699 C 185.988 15.808,185.882 15.712,185.929 15.485 C 185.983 15.225,185.643 15.038,185.004 14.976 C 184.246 14.903,183.994 14.729,183.994 14.277 C 183.994 13.946,183.889 13.692,183.761 13.712 C 182.719 13.877,181.872 13.602,181.728 13.054 C 181.605 12.584,181.304 12.432,180.497 12.432 C 179.823 12.432,179.220 12.202,178.866 11.810 C 178.556 11.469,177.921 11.189,177.455 11.189 C 176.868 11.189,176.557 10.997,176.445 10.567 C 176.321 10.096,176.021 9.946,175.203 9.946 C 174.129 9.946,173.224 9.320,173.662 8.881 C 173.789 8.754,173.753 8.679,173.582 8.713 C 173.411 8.748,173.166 8.742,173.038 8.700 C 172.745 8.605,171.773 8.482,170.862 8.426 C 170.336 8.393,170.269 8.315,170.593 8.110 C 170.926 7.899,170.856 7.781,170.282 7.586 C 169.299 7.252,169.203 7.232,168.298 7.187 C 167.832 7.164,167.521 6.962,167.521 6.682 C 167.521 6.426,167.382 6.199,167.211 6.177 C 167.040 6.156,166.760 6.103,166.589 6.061 C 166.418 6.018,165.706 5.965,165.006 5.944 C 164.049 5.915,163.696 5.763,163.583 5.329 C 163.459 4.857,163.093 4.743,161.545 4.697 C 159.520 4.636,159.013 4.481,159.303 4.011 C 159.404 3.848,159.371 3.740,159.231 3.771 C 159.090 3.803,158.765 3.740,158.508 3.632 C 158.252 3.524,157.273 3.397,156.333 3.350 C 155.392 3.302,154.670 3.139,154.727 2.987 C 154.939 2.428,153.938 2.185,151.404 2.180 C 149.077 2.176,148.828 2.120,149.012 1.641 C 149.125 1.347,149.118 1.206,148.996 1.328 C 148.875 1.449,148.589 1.394,148.361 1.205 C 148.133 1.016,146.512 0.797,144.758 0.719 C 143.004 0.642,141.523 0.448,141.466 0.289 C 141.294 -0.190,106.295 -0.091,106.289 0.389 C 106.285 0.673,106.212 0.664,106.016 0.353 C 105.856 0.102,105.701 0.061,105.632 0.253 " stroke="none" fill="#ec0413" fill-rule="evenodd"></path><path id="path2" d="M373.038 262.636 C 372.340 262.917,372.339 262.931,372.339 270.386 L 372.339 277.855 371.562 277.855 C 370.992 277.855,370.785 277.690,370.785 277.234 C 370.785 276.716,370.578 276.612,369.542 276.612 C 368.506 276.612,368.298 276.509,368.298 275.991 C 368.298 275.394,368.091 275.369,363.170 275.369 C 358.249 275.369,358.042 275.394,358.042 275.991 C 358.042 276.538,357.835 276.612,356.303 276.612 C 354.826 276.612,354.541 276.706,354.402 277.234 C 354.297 277.636,353.978 277.855,353.499 277.855 C 352.966 277.855,352.758 278.029,352.758 278.477 C 352.758 278.872,352.551 279.099,352.191 279.099 C 351.428 279.099,350.272 280.375,350.272 281.217 C 350.272 281.689,350.082 281.896,349.650 281.896 C 349.236 281.896,349.029 282.103,349.029 282.517 C 349.029 282.932,348.822 283.139,348.407 283.139 C 347.889 283.139,347.786 283.346,347.786 284.382 C 347.786 285.395,347.676 285.625,347.197 285.625 C 346.399 285.625,346.232 286.204,346.232 288.968 C 346.232 290.759,346.103 291.468,345.699 291.915 C 345.021 292.664,345.065 295.260,345.761 295.650 C 346.115 295.847,346.232 296.482,346.232 298.208 C 346.232 300.768,346.601 302.098,347.312 302.098 C 347.610 302.098,347.786 302.386,347.786 302.875 C 347.786 303.302,348.065 303.932,348.407 304.274 C 348.749 304.615,349.029 305.175,349.029 305.517 C 349.029 305.931,349.236 306.138,349.650 306.138 C 350.074 306.138,350.272 306.346,350.272 306.789 C 350.272 307.178,350.522 307.505,350.894 307.602 C 351.235 307.692,351.515 307.956,351.515 308.189 C 351.515 308.422,351.855 308.698,352.269 308.802 C 352.684 308.906,353.265 309.259,353.561 309.585 C 353.856 309.912,354.426 310.179,354.827 310.179 C 355.228 310.179,355.556 310.319,355.556 310.490 C 355.556 310.688,358.301 310.800,363.170 310.800 C 368.039 310.800,370.785 310.688,370.785 310.490 C 370.785 310.319,371.055 310.179,371.385 310.179 C 371.760 310.179,372.035 309.917,372.119 309.479 C 372.217 308.974,372.266 309.060,372.296 309.790 L 372.339 310.800 377.467 310.800 L 382.595 310.800 382.595 287.313 C 382.595 262.370,382.662 263.494,381.133 262.675 C 380.338 262.250,374.075 262.219,373.038 262.636 M160.062 271.484 L 160.062 276.612 156.669 276.612 C 151.995 276.612,152.292 276.356,152.292 280.383 C 152.292 284.459,152.202 284.382,156.974 284.382 L 160.062 284.382 160.062 295.260 C 160.062 305.931,160.074 306.138,160.684 306.138 C 161.200 306.138,161.305 306.346,161.305 307.361 C 161.305 308.287,161.448 308.628,161.893 308.769 C 162.217 308.872,162.553 309.231,162.641 309.567 C 162.763 310.032,163.069 310.179,163.918 310.179 C 164.532 310.179,165.035 310.319,165.035 310.490 C 165.035 310.688,167.625 310.800,172.183 310.800 C 176.742 310.800,179.332 310.688,179.332 310.490 C 179.332 310.319,179.891 310.179,180.575 310.179 L 181.818 310.179 181.818 307.692 C 181.818 305.433,181.763 305.206,181.211 305.206 C 180.684 305.206,180.593 304.951,180.512 303.263 L 180.420 301.321 178.693 301.229 C 177.277 301.155,176.863 301.252,176.392 301.773 C 175.619 302.627,170.319 302.749,170.319 301.913 C 170.319 301.641,170.039 301.345,169.697 301.256 C 169.095 301.098,169.075 300.832,169.075 292.738 L 169.075 284.382 174.825 284.382 L 180.575 284.382 180.575 280.497 L 180.575 276.612 174.825 276.612 L 169.075 276.612 169.075 271.484 L 169.075 266.356 164.569 266.356 L 160.062 266.356 160.062 271.484 M31.857 275.991 C 31.704 276.473,31.387 276.612,30.437 276.612 C 29.422 276.612,29.215 276.718,29.215 277.234 C 29.215 277.648,29.008 277.855,28.594 277.855 C 28.179 277.855,27.972 277.648,27.972 277.234 C 27.972 276.641,27.765 276.612,23.465 276.612 L 18.959 276.612 18.959 293.706 L 18.959 310.800 23.465 310.800 L 27.972 310.800 27.972 301.433 C 27.972 293.131,28.030 292.023,28.479 291.695 C 28.793 291.465,29.047 290.690,29.146 289.656 C 29.243 288.644,29.533 287.745,29.882 287.370 C 30.199 287.030,30.458 286.498,30.458 286.188 C 30.458 285.749,30.704 285.625,31.575 285.625 C 32.431 285.625,32.730 285.480,32.855 285.004 C 32.996 284.466,33.279 284.382,34.965 284.382 C 36.651 284.382,36.935 284.466,37.075 285.004 C 37.173 285.376,37.499 285.625,37.889 285.625 C 38.260 285.625,38.539 285.826,38.539 286.092 C 38.539 286.348,38.749 286.558,39.005 286.558 C 39.271 286.558,39.472 286.837,39.472 287.209 C 39.472 287.598,39.721 287.925,40.093 288.022 C 40.700 288.181,40.715 288.446,40.715 299.492 L 40.715 310.800 45.998 310.800 L 51.282 310.800 51.282 299.456 C 51.282 289.476,51.339 288.112,51.758 288.112 C 52.020 288.112,52.320 287.888,52.425 287.615 C 52.758 286.746,54.020 285.688,54.972 285.479 C 55.478 285.368,55.969 285.075,56.064 284.829 C 56.300 284.214,59.052 284.201,59.052 284.815 C 59.052 285.311,59.712 285.625,60.752 285.625 C 61.322 285.625,61.510 285.843,61.668 286.683 C 61.777 287.265,62.072 287.820,62.324 287.917 C 62.715 288.067,62.782 289.734,62.782 299.446 L 62.782 310.800 68.351 310.800 L 73.921 310.800 74.124 308.858 C 74.577 304.536,74.171 289.780,73.582 289.130 C 73.147 288.649,73.038 287.957,73.038 285.676 C 73.038 283.207,72.954 282.750,72.416 282.290 C 72.075 281.997,71.795 281.439,71.795 281.050 C 71.795 280.549,71.613 280.342,71.173 280.342 C 70.759 280.342,70.552 280.135,70.552 279.720 C 70.552 279.306,70.344 279.099,69.930 279.099 C 69.516 279.099,69.308 278.891,69.308 278.477 C 69.308 278.076,69.101 277.855,68.723 277.855 C 68.399 277.855,68.065 277.578,67.975 277.234 C 67.847 276.744,67.551 276.612,66.577 276.612 C 65.602 276.612,65.306 276.481,65.178 275.991 C 65.023 275.399,64.754 275.369,59.518 275.369 C 54.282 275.369,54.013 275.399,53.859 275.991 C 53.731 276.478,53.435 276.612,52.489 276.612 C 51.489 276.612,51.282 276.719,51.282 277.234 C 51.282 277.684,51.075 277.855,50.530 277.855 C 49.458 277.855,48.796 278.165,48.796 278.666 C 48.796 278.904,48.667 279.099,48.510 279.099 C 48.353 279.099,48.004 279.184,47.733 279.287 C 47.413 279.410,47.242 279.305,47.242 278.987 C 47.242 278.429,46.326 277.855,45.434 277.855 C 45.089 277.855,44.758 277.587,44.665 277.234 C 44.536 276.740,44.241 276.612,43.230 276.612 C 42.165 276.612,41.958 276.511,41.958 275.991 C 41.958 275.395,41.751 275.369,37.006 275.369 C 32.327 275.369,32.043 275.403,31.857 275.991 M90.222 275.991 C 90.092 276.489,89.798 276.612,88.745 276.612 C 87.826 276.612,87.262 276.799,86.869 277.234 C 86.559 277.576,85.978 277.855,85.577 277.855 C 85.056 277.855,84.848 278.032,84.848 278.477 C 84.848 278.891,84.641 279.099,84.227 279.099 C 83.812 279.099,83.605 279.306,83.605 279.720 C 83.605 280.135,83.398 280.342,82.984 280.342 C 82.528 280.342,82.362 280.549,82.362 281.119 C 82.362 281.689,82.196 281.896,81.740 281.896 C 81.326 281.896,81.119 282.103,81.119 282.517 C 81.119 282.922,80.912 283.139,80.525 283.139 C 80.068 283.139,79.879 283.444,79.708 284.455 C 79.586 285.178,79.259 285.936,78.981 286.138 C 78.121 286.767,78.049 300.193,78.903 300.884 C 79.241 301.159,79.564 301.859,79.619 302.440 C 79.698 303.261,79.876 303.519,80.420 303.596 C 80.994 303.677,81.119 303.891,81.119 304.790 C 81.119 305.624,81.267 305.924,81.740 306.048 C 82.082 306.138,82.362 306.465,82.362 306.775 C 82.362 307.086,82.629 307.424,82.955 307.528 C 83.281 307.631,83.623 307.913,83.716 308.153 C 83.808 308.394,84.380 308.684,84.988 308.798 C 85.790 308.948,86.092 309.165,86.092 309.592 C 86.092 310.037,86.317 310.179,87.024 310.179 C 87.537 310.179,87.956 310.319,87.956 310.490 C 87.956 310.688,90.650 310.800,95.416 310.800 C 100.181 310.800,102.875 310.688,102.875 310.490 C 102.875 310.319,103.143 310.179,103.471 310.179 C 103.798 310.179,104.137 310.004,104.223 309.790 C 104.309 309.577,104.391 309.716,104.404 310.101 C 104.429 310.797,104.453 310.800,109.557 310.800 L 114.685 310.800 114.685 293.706 L 114.685 276.612 109.557 276.612 C 104.636 276.612,104.429 276.637,104.429 277.234 L 104.429 277.855 103.807 277.234 C 103.370 276.796,102.771 276.612,101.787 276.612 C 100.596 276.612,100.389 276.520,100.389 275.991 C 100.389 275.395,100.181 275.369,95.387 275.369 C 90.646 275.369,90.376 275.402,90.222 275.991 M128.599 275.991 C 128.298 276.474,127.874 276.612,126.703 276.612 C 125.456 276.612,125.166 276.720,125.032 277.234 C 124.942 277.578,124.608 277.855,124.284 277.855 C 123.906 277.855,123.699 278.076,123.699 278.477 C 123.699 278.891,123.491 279.099,123.077 279.099 C 122.663 279.099,122.455 279.306,122.455 279.720 C 122.455 280.135,122.248 280.342,121.834 280.342 C 121.313 280.342,121.212 280.549,121.212 281.614 C 121.212 282.625,121.084 282.920,120.591 283.049 C 120.011 283.201,119.969 283.473,119.969 287.063 C 119.969 290.531,120.031 290.968,120.591 291.447 C 120.932 291.740,121.212 292.298,121.212 292.688 C 121.212 293.188,121.394 293.395,121.834 293.395 C 122.248 293.395,122.455 293.603,122.455 294.017 C 122.455 294.431,122.663 294.639,123.077 294.639 C 123.491 294.639,123.699 294.846,123.699 295.260 C 123.699 295.775,123.906 295.882,124.905 295.882 C 125.851 295.882,126.148 296.017,126.275 296.503 C 126.421 297.061,126.699 297.125,128.953 297.125 C 131.261 297.125,131.469 297.176,131.469 297.747 C 131.469 298.329,131.676 298.368,134.732 298.368 C 137.727 298.368,137.995 298.417,137.995 298.957 C 137.995 299.602,138.571 299.922,139.730 299.922 C 140.275 299.922,140.482 300.094,140.482 300.544 C 140.482 300.905,140.275 301.166,139.986 301.166 C 139.714 301.166,139.418 301.445,139.329 301.787 C 139.201 302.274,138.905 302.409,137.959 302.409 C 136.959 302.409,136.752 302.515,136.752 303.030 C 136.752 303.603,136.545 303.652,134.131 303.652 C 131.783 303.652,131.490 303.587,131.313 303.030 C 131.146 302.503,130.843 302.409,129.308 302.409 C 127.762 302.409,127.477 302.319,127.338 301.787 C 127.214 301.311,126.914 301.166,126.059 301.166 C 125.149 301.166,124.942 301.050,124.942 300.544 C 124.942 300.016,124.735 299.922,123.569 299.922 C 121.568 299.922,121.212 300.139,121.212 301.354 C 121.212 302.202,121.090 302.409,120.591 302.409 C 120.132 302.409,119.969 302.616,119.969 303.201 C 119.969 303.646,119.629 304.307,119.192 304.712 C 117.763 306.037,118.689 308.936,120.540 308.936 C 120.878 308.936,121.210 309.207,121.302 309.557 C 121.440 310.085,121.726 310.179,123.203 310.179 C 124.159 310.179,124.942 310.319,124.942 310.490 C 124.942 310.689,128.050 310.800,133.644 310.800 C 138.430 310.800,142.347 310.679,142.347 310.530 C 142.347 310.382,142.936 310.181,143.657 310.085 C 144.377 309.988,145.127 309.690,145.323 309.422 C 145.518 309.155,145.830 308.936,146.015 308.936 C 146.200 308.936,146.534 308.682,146.758 308.371 C 146.981 308.061,147.409 307.715,147.708 307.604 C 148.007 307.492,148.252 307.151,148.252 306.844 C 148.252 306.538,148.531 306.113,148.873 305.900 C 149.456 305.535,149.495 305.175,149.495 300.075 C 149.495 294.846,149.471 294.639,148.873 294.639 C 148.459 294.639,148.252 294.431,148.252 294.017 C 148.252 293.603,148.045 293.395,147.630 293.395 C 147.216 293.395,147.009 293.188,147.009 292.774 C 147.009 292.372,146.801 292.152,146.423 292.152 C 146.099 292.152,145.765 291.875,145.675 291.531 C 145.546 291.037,145.251 290.909,144.240 290.909 C 143.175 290.909,142.968 290.808,142.968 290.287 C 142.968 289.715,142.761 289.666,140.363 289.666 C 138.090 289.666,137.738 289.593,137.607 289.091 C 137.429 288.410,136.197 288.112,133.563 288.112 C 131.960 288.112,131.591 288.000,130.960 287.319 C 130.159 286.454,129.994 285.625,130.622 285.625 C 130.841 285.625,131.259 285.346,131.552 285.004 C 132.020 284.457,132.469 284.382,135.302 284.382 C 138.126 284.382,138.590 284.459,139.083 285.004 C 139.472 285.434,140.040 285.625,140.927 285.625 C 141.853 285.625,142.334 285.798,142.657 286.247 C 143.015 286.743,143.462 286.869,144.868 286.869 C 146.733 286.869,147.009 286.650,147.009 285.170 C 147.009 284.716,147.236 284.395,147.630 284.292 C 148.124 284.163,148.252 283.868,148.252 282.857 C 148.252 281.792,148.353 281.585,148.873 281.585 C 149.391 281.585,149.495 281.378,149.495 280.342 C 149.495 278.902,148.660 277.855,147.511 277.855 C 147.032 277.855,146.713 277.636,146.608 277.234 C 146.468 276.701,146.184 276.612,144.620 276.612 C 143.180 276.612,142.683 276.481,142.263 275.991 C 141.763 275.407,141.346 275.369,135.359 275.369 C 129.324 275.369,128.967 275.402,128.599 275.991 M196.205 275.991 C 196.071 276.505,195.781 276.612,194.527 276.612 C 193.349 276.612,192.926 276.750,192.624 277.234 C 192.411 277.576,191.990 277.855,191.689 277.855 C 191.349 277.855,191.142 278.091,191.142 278.477 C 191.142 278.928,190.935 279.099,190.388 279.099 C 189.544 279.099,188.345 280.400,188.345 281.316 C 188.345 281.689,188.123 281.896,187.723 281.896 C 187.309 281.896,187.102 282.103,187.102 282.517 C 187.102 282.932,186.895 283.139,186.480 283.139 C 185.963 283.139,185.859 283.346,185.859 284.371 C 185.859 285.286,185.698 285.689,185.237 285.936 C 184.643 286.254,184.615 286.587,184.615 293.541 C 184.615 300.540,184.639 300.820,185.237 301.010 C 185.720 301.163,185.859 301.480,185.859 302.430 C 185.859 303.445,185.964 303.652,186.480 303.652 C 186.986 303.652,187.102 303.859,187.102 304.769 C 187.102 305.624,187.247 305.924,187.723 306.048 C 188.065 306.138,188.345 306.373,188.345 306.572 C 188.345 307.201,190.303 308.679,191.364 308.851 C 192.095 308.970,192.385 309.182,192.385 309.598 C 192.385 310.068,192.622 310.179,193.629 310.179 C 194.312 310.179,194.872 310.319,194.872 310.490 C 194.872 310.688,197.669 310.800,202.642 310.800 C 207.615 310.800,210.412 310.688,210.412 310.490 C 210.412 310.319,210.971 310.179,211.655 310.179 C 212.484 310.179,213.105 309.972,213.520 309.557 C 213.862 309.215,214.364 308.936,214.637 308.936 C 214.909 308.936,215.203 308.664,215.290 308.331 C 215.377 307.999,215.748 307.684,216.116 307.632 C 217.179 307.480,217.220 305.459,216.180 304.419 C 215.743 303.982,215.385 303.350,215.385 303.016 C 215.385 302.616,215.173 302.409,214.763 302.409 C 214.311 302.409,214.141 302.202,214.141 301.649 C 214.141 300.653,213.060 299.922,211.586 299.922 C 210.619 299.922,210.412 300.032,210.412 300.544 C 210.412 301.050,210.205 301.166,209.295 301.166 C 208.439 301.166,208.140 301.311,208.015 301.787 C 207.878 302.313,207.592 302.409,206.151 302.409 C 204.710 302.409,204.423 302.504,204.286 303.030 C 204.083 303.804,201.088 303.981,201.088 303.219 C 201.088 302.645,200.400 302.409,198.731 302.409 C 197.565 302.409,197.358 302.315,197.358 301.787 C 197.358 301.373,197.151 301.166,196.737 301.166 C 196.322 301.166,196.115 300.958,196.115 300.544 C 196.115 300.130,195.908 299.922,195.493 299.922 C 195.038 299.922,194.872 299.715,194.872 299.145 L 194.872 298.368 206.205 298.368 C 217.092 298.368,217.551 298.345,217.860 297.767 C 218.521 296.533,218.268 287.549,217.560 287.107 C 217.194 286.879,216.939 286.383,216.939 285.900 C 216.939 284.193,216.568 283.139,215.967 283.139 C 215.608 283.139,215.385 282.919,215.385 282.566 C 215.385 282.250,215.105 281.739,214.763 281.430 C 214.421 281.120,214.141 280.562,214.141 280.188 C 214.141 279.766,213.848 279.376,213.364 279.155 C 212.937 278.961,212.587 278.665,212.587 278.498 C 212.587 278.331,212.098 278.103,211.500 277.990 C 210.712 277.843,210.412 277.624,210.412 277.199 C 210.412 276.713,210.178 276.612,209.049 276.612 C 207.948 276.612,207.656 276.493,207.525 275.991 C 207.370 275.399,207.101 275.369,201.865 275.369 C 196.629 275.369,196.360 275.399,196.205 275.991 M223.787 275.970 C 223.577 276.364,223.465 282.483,223.465 293.686 L 223.465 310.800 228.594 310.800 L 233.722 310.800 233.722 298.834 C 233.722 287.076,233.733 286.869,234.343 286.869 C 234.758 286.869,234.965 286.661,234.965 286.247 C 234.965 285.833,235.172 285.625,235.587 285.625 C 236.001 285.625,236.208 285.418,236.208 285.004 C 236.208 284.414,236.415 284.382,240.223 284.382 C 245.340 284.382,245.221 284.434,245.221 282.210 C 245.221 280.676,245.312 280.391,245.843 280.252 C 246.396 280.107,246.465 279.828,246.465 277.729 L 246.465 275.369 241.463 275.369 C 236.722 275.369,236.452 275.402,236.298 275.991 C 236.169 276.487,235.874 276.612,234.842 276.612 C 233.934 276.612,233.391 276.427,233.017 275.991 C 232.217 275.057,224.285 275.039,223.787 275.970 M259.608 275.991 C 259.469 276.523,259.184 276.612,257.617 276.612 C 255.996 276.612,255.789 276.683,255.789 277.234 C 255.789 277.740,255.581 277.855,254.672 277.855 C 253.816 277.855,253.517 278.001,253.392 278.477 C 253.299 278.834,252.968 279.099,252.615 279.099 C 252.272 279.099,251.932 279.360,251.846 279.692 C 251.761 280.018,251.424 280.354,251.098 280.439 C 250.767 280.526,250.505 280.866,250.505 281.209 C 250.505 281.562,250.241 281.893,249.883 281.986 C 249.407 282.110,249.262 282.410,249.262 283.265 C 249.262 284.175,249.147 284.382,248.640 284.382 C 248.102 284.382,248.019 284.589,248.019 285.934 C 248.019 287.148,247.884 287.569,247.397 287.873 C 246.812 288.238,246.775 288.598,246.775 293.936 C 246.775 299.404,246.798 299.611,247.397 299.611 C 247.927 299.611,248.019 299.819,248.019 301.010 C 248.019 301.994,248.203 302.593,248.640 303.030 C 248.982 303.372,249.262 303.932,249.262 304.274 C 249.262 304.688,249.469 304.895,249.883 304.895 C 250.298 304.895,250.505 305.102,250.505 305.517 C 250.505 305.924,250.712 306.138,251.105 306.138 C 251.491 306.138,251.741 306.388,251.804 306.838 C 251.868 307.287,252.154 307.572,252.603 307.636 C 253.052 307.700,253.302 307.950,253.302 308.336 C 253.302 308.716,253.516 308.936,253.888 308.936 C 254.212 308.936,254.546 309.213,254.636 309.557 C 254.760 310.033,255.059 310.179,255.915 310.179 C 256.529 310.179,257.032 310.319,257.032 310.490 C 257.032 310.689,260.036 310.800,265.423 310.800 C 270.811 310.800,273.815 310.689,273.815 310.490 C 273.815 310.319,274.318 310.179,274.932 310.179 C 275.787 310.179,276.087 310.033,276.211 309.557 C 276.301 309.213,276.635 308.936,276.959 308.936 C 277.877 308.936,277.843 304.099,276.923 303.807 C 276.581 303.699,276.301 303.351,276.301 303.035 C 276.301 302.128,275.963 301.476,275.491 301.476 C 275.237 301.476,275.058 301.156,275.058 300.699 C 275.058 299.652,272.585 299.537,271.723 300.544 C 271.430 300.886,270.942 301.166,270.638 301.166 C 270.293 301.166,270.085 301.399,270.085 301.787 C 270.085 302.381,269.878 302.409,265.423 302.409 C 260.969 302.409,260.761 302.381,260.761 301.787 C 260.761 301.386,260.554 301.166,260.176 301.166 C 259.852 301.166,259.518 300.888,259.428 300.544 C 259.339 300.202,259.043 299.922,258.770 299.922 C 258.482 299.922,258.275 299.662,258.275 299.301 C 258.275 298.894,258.068 298.679,257.676 298.679 C 256.576 298.679,256.579 289.546,257.679 289.258 C 258.127 289.141,258.275 288.825,258.275 287.986 C 258.275 287.076,258.390 286.869,258.897 286.869 C 259.239 286.869,259.798 286.589,260.140 286.247 C 260.482 285.905,261.008 285.625,261.308 285.625 C 261.609 285.625,262.030 285.346,262.243 285.004 C 262.585 284.457,262.968 284.382,265.423 284.382 C 267.879 284.382,268.262 284.457,268.604 285.004 C 268.880 285.446,269.328 285.625,270.160 285.625 C 271.121 285.625,271.329 285.736,271.329 286.247 C 271.329 286.800,271.536 286.869,273.193 286.869 C 274.813 286.869,275.058 286.792,275.058 286.283 C 275.058 285.959,275.336 285.625,275.680 285.535 C 276.174 285.406,276.301 285.111,276.301 284.101 C 276.301 283.027,276.400 282.828,276.936 282.828 C 277.528 282.828,277.565 282.667,277.480 280.420 L 277.389 278.011 276.224 277.914 C 275.311 277.839,275.058 277.687,275.058 277.215 C 275.058 276.703,274.836 276.612,273.579 276.612 C 272.436 276.612,272.011 276.471,271.712 275.991 C 271.346 275.405,270.987 275.369,265.547 275.369 C 260.032 275.369,259.764 275.397,259.608 275.991 M291.841 275.991 C 291.841 276.538,291.634 276.612,290.103 276.612 C 288.654 276.612,288.339 276.711,288.210 277.205 C 288.110 277.584,287.668 277.869,286.979 277.999 C 286.388 278.110,285.826 278.403,285.731 278.650 C 285.637 278.897,285.361 279.099,285.119 279.099 C 284.878 279.099,284.520 279.448,284.326 279.876 C 284.131 280.303,283.795 280.653,283.580 280.653 C 283.365 280.653,283.095 281.079,282.980 281.600 C 282.866 282.121,282.505 282.714,282.179 282.918 C 281.852 283.122,281.585 283.528,281.585 283.820 C 281.585 284.112,281.357 284.479,281.077 284.636 C 280.744 284.822,280.515 285.493,280.410 286.594 C 280.301 287.739,280.069 288.395,279.675 288.673 C 278.754 289.323,278.796 298.368,279.720 298.368 C 280.274 298.368,280.342 298.575,280.342 300.262 C 280.342 301.895,280.428 302.179,280.963 302.319 C 281.435 302.442,281.585 302.743,281.585 303.562 C 281.585 304.381,281.735 304.682,282.207 304.805 C 282.551 304.895,282.828 305.229,282.828 305.553 C 282.828 305.924,283.048 306.138,283.428 306.138 C 283.814 306.138,284.064 306.388,284.128 306.838 C 284.191 307.287,284.477 307.572,284.926 307.636 C 285.376 307.700,285.625 307.950,285.625 308.336 C 285.625 308.728,285.840 308.936,286.247 308.936 C 286.589 308.936,286.869 309.130,286.869 309.368 C 286.869 309.870,287.531 310.179,288.604 310.179 C 289.017 310.179,289.355 310.319,289.355 310.490 C 289.355 310.688,292.100 310.800,296.970 310.800 C 301.839 310.800,304.584 310.688,304.584 310.490 C 304.584 310.319,304.934 310.179,305.361 310.179 C 305.789 310.179,306.138 310.319,306.138 310.490 C 306.138 310.682,307.848 310.800,310.645 310.800 L 315.152 310.800 315.152 293.706 L 315.152 276.612 310.645 276.612 C 306.346 276.612,306.138 276.641,306.138 277.234 C 306.138 277.648,305.931 277.855,305.517 277.855 C 305.102 277.855,304.895 277.648,304.895 277.234 C 304.895 276.714,304.688 276.612,303.623 276.612 C 302.612 276.612,302.317 276.485,302.188 275.991 C 302.034 275.401,301.764 275.369,296.933 275.369 C 292.049 275.369,291.841 275.394,291.841 275.991 M323.225 276.166 C 323.041 276.649,322.922 283.641,322.922 293.882 L 322.922 310.800 327.428 310.800 L 331.935 310.800 331.935 300.699 C 331.935 291.855,331.994 290.598,332.409 290.598 C 332.990 290.598,333.489 289.368,333.489 287.936 C 333.489 287.217,333.634 286.869,333.934 286.869 C 334.179 286.869,334.466 286.596,334.571 286.263 C 334.677 285.930,335.036 285.571,335.369 285.465 C 335.703 285.359,335.975 285.072,335.975 284.828 C 335.975 284.465,336.695 284.382,339.860 284.382 L 343.745 284.382 343.745 283.605 C 343.745 283.035,343.911 282.828,344.367 282.828 C 344.918 282.828,344.988 282.621,344.988 281.000 C 344.988 279.433,345.077 279.148,345.610 279.009 C 346.138 278.871,346.232 278.585,346.232 277.108 L 346.232 275.369 341.129 275.369 C 335.787 275.369,335.043 275.468,335.043 276.179 C 335.043 276.434,334.723 276.612,334.266 276.612 C 333.712 276.612,333.489 276.780,333.489 277.198 C 333.489 277.575,333.213 277.836,332.712 277.932 C 331.979 278.072,331.935 278.003,331.935 276.725 L 331.935 275.369 327.731 275.369 L 323.528 275.369 323.225 276.166 M99.235 285.004 C 99.360 285.480,99.659 285.625,100.515 285.625 C 101.425 285.625,101.632 285.741,101.632 286.247 C 101.632 286.649,101.839 286.869,102.219 286.869 C 102.647 286.869,102.863 287.172,103.016 287.991 C 103.155 288.729,103.432 289.167,103.828 289.270 C 104.330 289.402,104.429 289.708,104.429 291.130 C 104.429 292.571,104.524 292.857,105.051 292.995 C 105.392 293.084,105.672 293.211,105.672 293.276 C 105.672 293.342,105.392 293.675,105.051 294.017 C 104.556 294.511,104.429 295.053,104.429 296.659 C 104.429 298.607,104.401 298.679,103.652 298.679 C 103.082 298.679,102.875 298.845,102.875 299.301 C 102.875 299.715,102.668 299.922,102.253 299.922 C 101.839 299.922,101.632 300.130,101.632 300.544 C 101.632 300.958,101.425 301.166,101.010 301.166 C 100.596 301.166,100.389 301.373,100.389 301.787 C 100.389 302.375,100.181 302.409,96.540 302.409 C 92.952 302.409,92.680 302.366,92.528 301.787 C 92.435 301.430,92.105 301.166,91.751 301.166 C 91.398 301.166,91.068 300.901,90.974 300.544 C 90.885 300.202,90.589 299.922,90.317 299.922 C 90.028 299.922,89.821 299.662,89.821 299.301 C 89.821 298.886,89.614 298.679,89.200 298.679 C 88.683 298.679,88.578 298.472,88.578 297.457 C 88.578 296.508,88.439 296.191,87.956 296.037 C 87.411 295.864,87.335 295.567,87.335 293.599 C 87.335 291.714,87.434 291.286,87.956 290.909 C 88.389 290.597,88.578 290.105,88.578 289.286 C 88.578 288.319,88.688 288.112,89.200 288.112 C 89.614 288.112,89.821 287.905,89.821 287.490 C 89.821 287.067,90.028 286.869,90.472 286.869 C 90.851 286.869,91.187 286.621,91.278 286.276 C 91.377 285.897,91.819 285.611,92.508 285.482 C 93.100 285.371,93.661 285.078,93.756 284.831 C 94.058 284.043,99.025 284.199,99.235 285.004 M205.218 285.004 C 205.316 285.376,205.642 285.625,206.032 285.625 C 206.475 285.625,206.682 285.823,206.682 286.247 C 206.682 286.661,206.889 286.869,207.304 286.869 C 207.820 286.869,207.925 287.076,207.925 288.090 C 207.925 289.110,208.041 289.334,208.625 289.447 C 209.009 289.521,206.072 289.600,202.098 289.624 L 194.872 289.666 194.872 288.964 C 194.872 288.577,195.152 288.087,195.493 287.873 C 195.880 287.632,196.115 287.148,196.115 286.595 C 196.115 285.797,196.243 285.684,197.358 285.506 C 198.163 285.378,198.601 285.144,198.601 284.845 C 198.601 284.026,205.003 284.180,205.218 285.004 M301.256 285.004 C 301.345 285.346,301.641 285.625,301.913 285.625 C 302.365 285.625,302.712 285.879,304.351 287.404 C 304.650 287.682,304.895 288.178,304.895 288.506 C 304.895 288.841,305.168 289.174,305.517 289.265 C 306.319 289.475,306.503 297.436,305.705 297.436 C 305.204 297.436,304.895 298.098,304.895 299.171 C 304.895 299.715,304.724 299.922,304.274 299.922 C 303.859 299.922,303.652 300.130,303.652 300.544 C 303.652 300.930,303.445 301.166,303.105 301.166 C 302.804 301.166,302.384 301.445,302.170 301.787 C 301.819 302.350,301.445 302.409,298.231 302.409 C 294.954 302.409,294.665 302.361,294.483 301.787 C 294.375 301.445,294.016 301.166,293.685 301.166 C 292.978 301.166,291.989 300.254,291.696 299.331 C 291.582 298.973,291.288 298.679,291.044 298.679 C 290.799 298.679,290.598 298.430,290.598 298.126 C 290.598 297.822,290.319 297.372,289.977 297.125 C 289.429 296.730,289.355 296.321,289.355 293.674 C 289.355 290.932,289.409 290.657,289.977 290.508 C 290.453 290.384,290.598 290.084,290.598 289.229 C 290.598 288.319,290.714 288.112,291.220 288.112 C 291.634 288.112,291.841 287.905,291.841 287.490 C 291.841 287.076,292.049 286.869,292.463 286.869 C 292.865 286.869,293.085 286.661,293.085 286.282 C 293.085 285.855,293.387 285.638,294.189 285.488 C 294.796 285.374,295.371 285.078,295.465 284.831 C 295.769 284.040,301.045 284.198,301.256 285.004 M367.055 284.815 C 367.055 285.311,367.715 285.625,368.754 285.625 C 369.208 285.625,369.528 285.853,369.632 286.247 C 369.729 286.619,370.056 286.869,370.445 286.869 C 370.888 286.869,371.096 287.067,371.096 287.490 C 371.096 287.832,371.375 288.392,371.717 288.733 C 372.128 289.144,372.339 289.769,372.339 290.577 C 372.339 291.527,372.478 291.844,372.960 291.997 C 373.441 292.149,373.582 292.467,373.582 293.395 C 373.582 294.324,373.441 294.642,372.960 294.794 C 372.431 294.962,372.339 295.264,372.339 296.835 C 372.339 298.472,372.269 298.679,371.717 298.679 C 371.303 298.679,371.096 298.886,371.096 299.301 C 371.096 299.708,370.888 299.922,370.495 299.922 C 370.165 299.922,369.805 300.202,369.697 300.544 C 369.588 300.886,369.229 301.166,368.899 301.166 C 368.506 301.166,368.298 301.380,368.298 301.787 C 368.298 302.376,368.091 302.409,364.413 302.409 C 361.066 302.409,360.528 302.340,360.528 301.913 C 360.528 301.641,360.249 301.345,359.907 301.256 C 359.565 301.166,359.285 300.886,359.285 300.634 C 359.285 300.381,359.018 300.105,358.692 300.020 C 358.366 299.935,358.030 299.598,357.944 299.272 C 357.854 298.927,357.517 298.679,357.139 298.679 C 356.584 298.679,356.488 298.491,356.488 297.407 C 356.488 296.396,356.360 296.101,355.866 295.972 C 355.328 295.831,355.245 295.548,355.245 293.862 C 355.245 292.175,355.328 291.892,355.866 291.751 C 356.394 291.613,356.488 291.328,356.488 289.850 C 356.488 288.203,356.529 288.112,357.265 288.112 C 357.835 288.112,358.042 287.946,358.042 287.490 C 358.042 287.076,358.249 286.869,358.664 286.869 C 359.064 286.869,359.285 286.661,359.285 286.287 C 359.285 285.848,359.591 285.656,360.528 285.506 C 361.333 285.378,361.772 285.144,361.772 284.845 C 361.772 284.472,362.282 284.382,364.413 284.382 C 366.464 284.382,367.055 284.479,367.055 284.815 " stroke="none" fill="#040404" fill-rule="evenodd"></path><path id="path3" d="M199.746 26.366 C 199.638 26.907,198.957 27.776,197.980 28.619 C 194.208 31.874,188.898 37.051,184.615 41.647 C 181.857 44.607,177.596 50.048,175.515 53.268 C 175.307 53.591,174.847 54.220,174.494 54.666 C 174.141 55.113,173.512 56.035,173.096 56.717 C 172.679 57.398,172.165 58.237,171.954 58.581 C 171.742 58.926,171.396 59.592,171.186 60.062 C 170.976 60.532,170.690 60.917,170.550 60.917 C 170.411 60.917,170.018 61.511,169.677 62.238 C 169.336 62.964,168.438 64.678,167.683 66.045 C 166.927 67.413,166.220 68.741,166.111 68.998 C 166.002 69.254,165.575 70.165,165.163 71.022 C 164.751 71.879,164.413 72.736,164.413 72.927 C 164.413 73.117,164.218 73.435,163.980 73.633 C 163.741 73.831,163.458 74.463,163.350 75.038 C 163.242 75.613,162.962 76.243,162.728 76.437 C 162.494 76.631,162.208 77.293,162.093 77.909 C 161.977 78.524,161.613 79.531,161.283 80.146 C 160.954 80.762,160.679 81.477,160.673 81.736 C 160.667 81.995,160.392 82.766,160.062 83.450 C 159.732 84.134,159.457 85.013,159.451 85.405 C 159.445 85.796,159.161 86.665,158.819 87.335 C 158.477 88.005,158.191 88.944,158.184 89.420 C 158.176 89.897,157.952 90.847,157.685 91.531 C 157.419 92.214,157.009 93.790,156.776 95.031 C 156.542 96.272,156.222 97.531,156.066 97.828 C 155.910 98.125,155.680 99.417,155.556 100.699 C 155.432 101.981,155.136 103.610,154.898 104.319 C 154.660 105.028,154.329 107.621,154.163 110.082 C 153.998 112.543,153.721 115.529,153.549 116.719 C 153.151 119.478,153.151 127.811,153.550 130.847 C 153.719 132.129,153.998 135.257,154.171 137.799 C 154.344 140.340,154.623 142.678,154.792 142.994 C 154.961 143.310,155.242 144.727,155.415 146.143 C 155.589 147.559,155.930 149.417,156.174 150.272 C 156.727 152.211,157.509 155.380,157.939 157.420 C 158.119 158.275,158.515 159.534,158.819 160.218 C 159.123 160.901,159.462 161.979,159.573 162.613 C 159.684 163.247,159.978 164.156,160.227 164.633 C 160.476 165.111,160.681 165.713,160.682 165.972 C 160.683 166.231,160.963 166.965,161.305 167.603 C 161.647 168.240,161.928 168.938,161.930 169.152 C 161.931 169.366,162.277 170.241,162.697 171.096 C 163.118 171.950,163.466 172.877,163.471 173.155 C 163.477 173.434,163.691 173.835,163.947 174.048 C 164.204 174.261,164.413 174.607,164.413 174.817 C 164.413 175.027,164.763 175.856,165.190 176.660 C 165.618 177.464,165.967 178.314,165.967 178.549 C 165.967 178.784,166.150 179.161,166.373 179.387 C 166.596 179.613,167.232 180.707,167.785 181.818 C 168.339 182.929,169.202 184.538,169.702 185.392 C 170.203 186.247,170.823 187.388,171.079 187.928 C 171.336 188.468,171.663 188.957,171.805 189.016 C 171.948 189.074,172.517 189.891,173.069 190.831 C 173.622 191.772,174.548 193.170,175.128 193.939 C 175.708 194.709,176.192 195.445,176.203 195.576 C 176.214 195.707,177.071 196.895,178.107 198.218 C 179.142 199.540,180.296 201.022,180.671 201.512 C 181.045 202.002,181.577 202.632,181.852 202.911 C 182.127 203.190,183.019 204.188,183.835 205.128 C 187.132 208.928,192.740 214.475,196.246 217.405 C 198.650 219.414,199.839 220.776,199.842 221.523 C 199.845 222.427,200.362 222.427,200.637 221.523 C 200.933 220.554,201.437 220.021,204.836 217.086 C 210.546 212.155,217.202 205.102,221.680 199.235 C 223.285 197.133,228.670 189.305,229.060 188.507 C 229.376 187.860,231.056 185.076,231.221 184.926 C 231.314 184.841,231.922 183.722,232.570 182.440 C 233.218 181.158,233.867 179.899,234.011 179.643 C 234.274 179.176,235.254 177.052,236.485 174.281 C 236.846 173.469,237.420 172.201,237.762 171.464 C 238.104 170.726,238.384 169.943,238.384 169.724 C 238.384 169.506,238.592 168.955,238.846 168.502 C 239.426 167.465,240.181 165.349,240.699 163.304 C 240.919 162.438,241.275 161.399,241.491 160.995 C 241.707 160.592,242.059 159.483,242.273 158.530 C 242.486 157.578,242.810 156.379,242.993 155.866 C 243.400 154.723,244.495 149.848,244.774 147.941 C 244.886 147.172,245.163 145.773,245.389 144.833 C 245.616 143.893,245.889 142.075,245.997 140.793 C 246.105 139.510,246.406 136.783,246.667 134.732 C 247.233 130.276,247.320 117.528,246.809 114.064 C 246.620 112.782,246.259 109.738,246.008 107.300 C 245.756 104.862,245.421 102.625,245.262 102.327 C 245.103 102.030,244.875 100.948,244.755 99.922 C 244.424 97.105,243.131 91.940,241.603 87.335 C 241.348 86.566,241.005 85.377,240.842 84.693 C 240.679 84.009,240.356 83.030,240.124 82.517 C 239.893 82.005,239.531 81.096,239.321 80.497 C 238.334 77.686,238.007 76.835,237.469 75.680 C 237.150 74.996,236.588 73.737,236.219 72.883 C 235.850 72.028,235.417 71.119,235.256 70.862 C 235.095 70.606,234.826 70.047,234.658 69.619 C 234.491 69.192,234.154 68.493,233.911 68.065 C 233.668 67.638,232.962 66.309,232.342 65.113 C 231.723 63.916,230.905 62.418,230.526 61.783 C 230.147 61.148,229.392 59.873,228.847 58.949 C 228.303 58.026,227.425 56.657,226.896 55.908 C 226.367 55.158,225.432 53.776,224.818 52.836 C 224.204 51.896,222.973 50.218,222.084 49.106 C 221.195 47.995,220.337 46.859,220.179 46.582 C 219.909 46.109,217.161 42.888,215.906 41.574 C 215.595 41.248,214.196 39.747,212.798 38.240 C 210.335 35.583,207.160 32.565,202.852 28.786 C 201.706 27.780,200.685 26.626,200.583 26.221 C 200.334 25.229,199.961 25.293,199.746 26.366 M397.404 154.784 C 396.929 155.589,396.923 155.680,397.356 155.513 C 397.629 155.409,397.776 155.249,397.685 155.157 C 397.594 155.066,397.678 154.800,397.871 154.567 C 398.065 154.333,398.162 154.080,398.085 154.004 C 398.009 153.928,397.703 154.279,397.404 154.784 M228.749 239.441 C 228.749 239.678,228.979 239.960,229.260 240.067 C 230.013 240.356,230.056 240.131,229.361 239.536 C 228.886 239.128,228.749 239.107,228.749 239.441 M316.389 242.191 C 316.084 242.819,316.094 242.835,316.486 242.351 C 316.726 242.055,317.013 241.903,317.125 242.015 C 317.236 242.126,317.327 242.054,317.327 241.854 C 317.327 241.243,316.747 241.451,316.389 242.191 M302.296 245.998 C 302.198 246.255,302.193 246.465,302.285 246.465 C 302.378 246.465,302.663 246.255,302.919 245.998 C 303.324 245.594,303.325 245.532,302.930 245.532 C 302.680 245.532,302.395 245.742,302.296 245.998 " stroke="none" fill="#fc5d04" fill-rule="evenodd"></path><path id="path4" d="M98.291 0.827 C 98.077 0.914,97.918 1.287,97.938 1.658 C 97.966 2.183,98.005 2.212,98.116 1.787 C 98.195 1.488,98.458 1.243,98.702 1.243 C 98.946 1.243,99.145 1.103,99.145 0.932 C 99.145 0.602,98.919 0.574,98.291 0.827 M147.941 1.001 C 148.368 1.187,148.818 1.320,148.940 1.295 C 149.062 1.271,149.082 1.459,148.984 1.713 C 148.887 1.967,148.962 2.176,149.151 2.176 C 149.810 2.176,149.504 1.007,148.796 0.817 C 147.660 0.513,147.100 0.633,147.941 1.001 M92.174 2.664 C 91.616 3.222,91.613 3.271,92.121 3.369 C 92.811 3.502,93.012 3.301,92.879 2.611 C 92.781 2.102,92.733 2.106,92.174 2.664 M154.417 2.448 C 154.645 2.593,154.812 2.836,154.789 2.987 C 154.765 3.139,154.998 3.315,155.306 3.377 C 155.831 3.484,155.829 3.450,155.274 2.833 C 154.949 2.472,154.529 2.178,154.342 2.180 C 154.152 2.183,154.185 2.301,154.417 2.448 M87.723 3.903 C 87.266 4.400,87.227 4.662,87.612 4.662 C 87.878 4.662,88.374 3.727,88.197 3.561 C 88.150 3.517,87.937 3.671,87.723 3.903 M158.667 3.735 C 158.774 3.908,159.014 3.957,159.199 3.842 C 159.393 3.722,159.448 3.777,159.328 3.971 C 159.213 4.156,159.262 4.396,159.435 4.503 C 159.610 4.612,159.751 4.413,159.751 4.059 C 159.751 3.620,159.550 3.419,159.111 3.419 C 158.757 3.419,158.559 3.560,158.667 3.735 M83.610 5.206 C 83.613 5.551,83.698 5.621,83.843 5.397 C 83.969 5.203,84.351 4.975,84.693 4.889 C 85.170 4.770,85.115 4.726,84.460 4.698 C 83.838 4.672,83.607 4.810,83.610 5.206 M76.309 7.758 C 76.046 8.184,76.279 8.504,76.738 8.346 C 76.926 8.282,76.950 8.062,76.797 7.815 C 76.602 7.502,76.476 7.487,76.309 7.758 M173.271 9.013 C 173.949 9.762,174.048 9.779,174.048 9.150 C 174.048 8.884,173.908 8.752,173.737 8.858 C 173.566 8.963,173.427 8.902,173.427 8.721 C 173.427 8.540,173.265 8.392,173.068 8.392 C 172.864 8.392,172.952 8.661,173.271 9.013 M178.399 11.306 C 178.399 11.371,178.609 11.598,178.866 11.810 C 179.247 12.127,179.332 12.106,179.332 11.693 C 179.332 11.416,179.122 11.189,178.866 11.189 C 178.609 11.189,178.399 11.242,178.399 11.306 M183.994 14.278 C 183.994 14.630,184.134 14.918,184.305 14.918 C 184.476 14.918,184.615 14.717,184.615 14.471 C 184.615 14.224,184.476 13.936,184.305 13.831 C 184.134 13.725,183.994 13.927,183.994 14.278 M60.502 15.126 C 60.189 15.439,60.254 16.162,60.595 16.162 C 60.760 16.162,61.045 15.882,61.228 15.540 C 61.560 14.920,61.018 14.610,60.502 15.126 M185.962 15.358 C 185.962 15.614,186.094 15.742,186.256 15.642 C 186.417 15.542,186.681 15.653,186.842 15.889 C 187.065 16.214,187.112 16.169,187.037 15.699 C 186.923 14.976,185.962 14.672,185.962 15.358 M187.801 16.376 C 188.100 16.454,188.345 16.787,188.345 17.117 C 188.345 17.512,188.560 17.716,188.978 17.716 C 189.501 17.716,189.556 17.614,189.297 17.131 C 188.976 16.530,188.263 16.134,187.620 16.198 C 187.421 16.217,187.502 16.298,187.801 16.376 M211.027 16.946 C 210.446 17.647,210.783 17.727,211.476 17.054 C 211.805 16.734,211.927 16.472,211.747 16.472 C 211.568 16.472,211.243 16.686,211.027 16.946 M341.079 16.990 C 341.121 17.275,341.388 17.543,341.673 17.585 C 342.282 17.674,342.342 17.369,341.818 16.845 C 341.295 16.322,340.990 16.382,341.079 16.990 M53.950 19.470 C 53.690 20.148,54.035 20.463,54.402 19.882 C 54.770 19.301,54.778 18.959,54.423 18.959 C 54.271 18.959,54.058 19.189,53.950 19.470 M192.278 19.438 C 192.482 19.969,193.055 19.903,193.247 19.328 C 193.315 19.123,193.086 18.959,192.732 18.959 C 192.285 18.959,192.149 19.102,192.278 19.438 M52.550 20.901 C 52.566 21.369,52.633 21.446,52.752 21.134 C 52.849 20.878,53.083 20.565,53.271 20.440 C 53.482 20.299,53.405 20.210,53.069 20.207 C 52.704 20.204,52.533 20.432,52.550 20.901 M50.447 22.194 L 49.577 22.942 50.401 22.784 C 50.863 22.696,51.294 22.367,51.380 22.036 C 51.579 21.277,51.496 21.291,50.447 22.194 M48.362 23.802 C 48.246 24.105,48.316 24.247,48.543 24.171 C 49.008 24.016,49.263 23.310,48.855 23.310 C 48.688 23.310,48.466 23.532,48.362 23.802 M45.439 25.859 C 44.943 26.355,44.967 26.729,45.496 26.729 C 45.732 26.729,45.999 26.449,46.089 26.107 C 46.272 25.407,45.996 25.302,45.439 25.859 M199.095 26.263 C 198.988 26.690,198.771 27.040,198.614 27.040 C 198.456 27.040,197.707 27.634,196.950 28.361 C 196.193 29.087,194.405 30.730,192.977 32.012 C 189.482 35.151,184.633 40.157,184.623 40.637 C 184.619 40.851,184.406 41.026,184.149 41.026 C 183.893 41.026,183.683 41.143,183.683 41.287 C 183.683 41.431,183.055 42.235,182.286 43.074 C 181.518 43.913,180.637 44.880,180.328 45.221 C 180.019 45.563,179.354 46.472,178.850 47.242 C 178.347 48.011,177.760 48.752,177.546 48.889 C 177.331 49.025,177.156 49.345,177.156 49.598 C 177.156 49.851,176.964 50.132,176.728 50.223 C 176.372 50.359,174.487 52.963,173.269 55.003 C 173.097 55.291,172.713 55.770,172.414 56.068 C 172.116 56.366,171.873 56.884,171.873 57.219 C 171.873 57.554,171.676 57.904,171.435 57.996 C 171.194 58.089,170.818 58.609,170.598 59.152 C 170.379 59.695,170.017 60.252,169.793 60.388 C 169.569 60.525,169.386 60.813,169.386 61.027 C 169.386 61.242,169.037 61.892,168.609 62.471 C 168.182 63.050,167.832 63.762,167.832 64.052 C 167.832 64.342,167.640 64.654,167.406 64.744 C 167.172 64.833,166.883 65.292,166.765 65.762 C 166.647 66.233,166.279 66.962,165.948 67.383 C 165.617 67.805,165.346 68.410,165.346 68.729 C 165.346 69.048,165.066 69.588,164.724 69.930 C 164.382 70.272,164.103 70.844,164.103 71.202 C 164.103 71.560,163.823 72.208,163.481 72.642 C 163.139 73.077,162.859 73.642,162.859 73.898 C 162.859 74.154,162.595 74.799,162.271 75.332 C 161.948 75.865,161.583 76.791,161.460 77.389 C 161.337 77.988,161.036 78.704,160.791 78.982 C 160.547 79.260,160.259 80.028,160.151 80.689 C 160.044 81.350,159.783 82.064,159.571 82.276 C 159.360 82.487,159.086 83.257,158.963 83.986 C 158.839 84.715,158.477 85.800,158.157 86.396 C 157.837 86.993,157.575 87.973,157.574 88.573 C 157.573 89.174,157.294 90.085,156.954 90.598 C 156.576 91.170,156.332 92.072,156.324 92.929 C 156.317 93.699,156.041 94.887,155.711 95.571 C 155.356 96.305,155.106 97.490,155.100 98.463 C 155.094 99.380,154.831 100.690,154.508 101.416 C 154.106 102.316,153.862 103.848,153.718 106.368 C 153.600 108.444,153.296 110.586,153.013 111.340 C 152.260 113.346,152.244 133.632,152.994 136.131 C 153.276 137.071,153.599 139.378,153.713 141.259 C 153.850 143.521,154.117 145.138,154.504 146.038 C 154.839 146.816,155.094 148.146,155.100 149.146 C 155.106 150.218,155.343 151.374,155.711 152.137 C 156.041 152.821,156.317 153.939,156.324 154.623 C 156.331 155.307,156.565 156.286,156.845 156.799 C 157.125 157.312,157.463 158.478,157.597 159.391 C 157.731 160.303,158.042 161.282,158.288 161.566 C 158.535 161.850,158.832 162.712,158.949 163.481 C 159.066 164.250,159.343 165.159,159.565 165.501 C 159.787 165.843,160.063 166.633,160.179 167.257 C 160.295 167.881,160.581 168.550,160.815 168.744 C 161.049 168.939,161.335 169.617,161.451 170.252 C 161.567 170.887,161.840 171.686,162.058 172.028 C 162.276 172.370,162.623 173.163,162.828 173.790 C 163.034 174.418,163.405 175.099,163.652 175.305 C 163.900 175.510,164.103 176.012,164.103 176.420 C 164.103 176.828,164.382 177.402,164.724 177.694 C 165.066 177.987,165.346 178.547,165.346 178.938 C 165.346 179.329,165.625 179.888,165.967 180.181 C 166.309 180.474,166.589 180.943,166.589 181.224 C 166.589 181.505,166.847 182.068,167.163 182.476 C 167.479 182.883,167.839 183.630,167.962 184.135 C 168.086 184.640,168.457 185.243,168.787 185.474 C 169.116 185.705,169.386 186.097,169.386 186.346 C 169.386 186.594,169.889 187.513,170.504 188.387 C 171.119 189.262,171.762 190.380,171.933 190.871 C 172.104 191.362,172.363 191.764,172.508 191.764 C 172.653 191.764,172.954 192.099,173.177 192.510 C 173.785 193.629,175.969 196.848,176.362 197.203 C 176.551 197.374,177.234 198.318,177.880 199.301 C 178.526 200.284,179.187 201.088,179.348 201.088 C 179.510 201.088,179.643 201.244,179.643 201.435 C 179.643 201.626,180.202 202.325,180.886 202.989 C 181.570 203.652,182.129 204.330,182.129 204.495 C 182.129 204.660,182.409 204.945,182.751 205.128 C 183.092 205.311,183.372 205.640,183.372 205.860 C 183.372 206.583,195.153 218.182,195.888 218.182 C 196.261 218.182,199.089 221.149,199.515 221.989 C 200.056 223.053,200.168 222.968,199.899 221.703 C 199.670 220.633,198.566 219.332,196.251 217.405 C 192.781 214.516,187.147 208.945,183.835 205.128 C 183.019 204.188,182.127 203.190,181.852 202.911 C 181.577 202.632,181.045 202.002,180.671 201.512 C 180.296 201.022,179.142 199.540,178.107 198.218 C 177.071 196.895,176.214 195.707,176.203 195.576 C 176.192 195.445,175.708 194.709,175.128 193.939 C 174.548 193.170,173.622 191.772,173.069 190.831 C 172.517 189.891,171.948 189.074,171.805 189.016 C 171.663 188.957,171.336 188.468,171.079 187.928 C 170.823 187.388,170.203 186.247,169.702 185.392 C 169.202 184.538,168.339 182.929,167.785 181.818 C 167.232 180.707,166.596 179.613,166.373 179.387 C 166.150 179.161,165.967 178.784,165.967 178.549 C 165.967 178.314,165.618 177.464,165.190 176.660 C 164.763 175.856,164.413 175.027,164.413 174.817 C 164.413 174.607,164.204 174.261,163.947 174.048 C 163.691 173.835,163.477 173.434,163.471 173.155 C 163.466 172.877,163.118 171.950,162.697 171.096 C 162.277 170.241,161.931 169.366,161.930 169.152 C 161.928 168.938,161.647 168.240,161.305 167.603 C 160.963 166.965,160.683 166.231,160.682 165.972 C 160.681 165.713,160.476 165.111,160.227 164.633 C 159.978 164.156,159.684 163.247,159.573 162.613 C 159.462 161.979,159.123 160.901,158.819 160.218 C 158.515 159.534,158.119 158.275,157.939 157.420 C 157.509 155.380,156.727 152.211,156.174 150.272 C 155.930 149.417,155.589 147.559,155.415 146.143 C 155.242 144.727,154.961 143.310,154.792 142.994 C 154.623 142.678,154.344 140.340,154.171 137.799 C 153.998 135.257,153.719 132.129,153.550 130.847 C 153.151 127.811,153.151 119.478,153.549 116.719 C 153.721 115.529,153.998 112.543,154.163 110.082 C 154.329 107.621,154.660 105.028,154.898 104.319 C 155.136 103.610,155.432 101.981,155.556 100.699 C 155.680 99.417,155.910 98.125,156.066 97.828 C 156.222 97.531,156.542 96.272,156.776 95.031 C 157.009 93.790,157.419 92.214,157.685 91.531 C 157.952 90.847,158.176 89.897,158.184 89.420 C 158.191 88.944,158.477 88.005,158.819 87.335 C 159.161 86.665,159.445 85.796,159.451 85.405 C 159.457 85.013,159.732 84.134,160.062 83.450 C 160.392 82.766,160.667 81.995,160.673 81.736 C 160.679 81.477,160.954 80.762,161.283 80.146 C 161.613 79.531,161.977 78.524,162.093 77.909 C 162.208 77.293,162.494 76.631,162.728 76.437 C 162.962 76.243,163.242 75.613,163.350 75.038 C 163.458 74.463,163.741 73.831,163.980 73.633 C 164.218 73.435,164.413 73.117,164.413 72.927 C 164.413 72.736,164.751 71.879,165.163 71.022 C 165.575 70.165,166.002 69.254,166.111 68.998 C 166.220 68.741,166.927 67.413,167.683 66.045 C 168.438 64.678,169.336 62.964,169.677 62.238 C 170.018 61.511,170.411 60.917,170.550 60.917 C 170.690 60.917,170.976 60.532,171.186 60.062 C 171.396 59.592,171.742 58.926,171.954 58.581 C 172.165 58.237,172.679 57.398,173.096 56.717 C 173.512 56.035,174.141 55.113,174.494 54.666 C 174.847 54.220,175.307 53.591,175.515 53.268 C 179.677 46.827,185.840 39.827,194.031 32.237 C 195.363 31.002,197.216 29.282,198.149 28.414 C 199.198 27.438,199.845 26.578,199.845 26.161 C 199.845 25.238,199.335 25.308,199.095 26.263 M40.812 29.808 C 40.727 30.134,40.412 30.465,40.112 30.544 C 39.811 30.622,39.488 30.985,39.392 31.350 C 39.297 31.715,39.346 31.935,39.501 31.839 C 39.656 31.743,39.782 31.463,39.782 31.217 C 39.782 30.971,39.937 30.769,40.126 30.769 C 40.315 30.769,40.885 30.420,41.393 29.992 C 42.250 29.271,42.268 29.215,41.642 29.215 C 41.240 29.215,40.905 29.455,40.812 29.808 M31.702 38.969 C 31.702 39.206,31.422 39.472,31.080 39.562 C 30.721 39.656,30.474 39.966,30.494 40.297 C 30.524 40.774,30.553 40.784,30.667 40.358 C 30.741 40.077,31.075 39.775,31.407 39.688 C 31.920 39.554,32.317 38.539,31.857 38.539 C 31.772 38.539,31.702 38.733,31.702 38.969 M25.689 45.634 C 24.965 46.435,25.049 46.620,25.949 46.202 C 26.375 46.005,26.725 45.668,26.726 45.455 C 26.730 44.898,26.286 44.975,25.689 45.634 M19.317 54.044 C 19.086 54.190,18.946 54.562,19.006 54.871 C 19.109 55.407,19.140 55.408,19.658 54.890 C 20.534 54.013,20.296 53.423,19.317 54.044 M17.503 57.110 C 17.397 57.409,17.113 57.884,16.871 58.167 C 16.574 58.513,16.539 58.746,16.764 58.885 C 17.055 59.065,17.246 58.732,17.870 56.954 C 17.946 56.740,17.937 56.566,17.852 56.566 C 17.766 56.566,17.609 56.810,17.503 57.110 M15.074 60.606 C 14.968 60.777,15.092 60.917,15.348 60.917 C 15.604 60.917,15.901 60.777,16.006 60.606 C 16.112 60.435,15.989 60.295,15.732 60.295 C 15.476 60.295,15.179 60.435,15.074 60.606 M13.818 63.113 C 13.479 63.661,13.836 63.738,14.475 63.255 C 15.001 62.857,15.010 62.800,14.548 62.792 C 14.259 62.786,13.931 62.931,13.818 63.113 M5.910 80.575 C 5.913 81.090,5.986 81.162,6.184 80.849 C 6.332 80.615,6.645 80.303,6.879 80.155 C 7.192 79.956,7.120 79.884,6.605 79.880 C 6.084 79.877,5.906 80.054,5.910 80.575 M4.769 84.085 C 4.484 84.827,4.795 84.895,5.375 84.218 C 5.825 83.692,5.832 83.605,5.426 83.605 C 5.166 83.605,4.870 83.821,4.769 84.085 M2.497 92.287 C 1.978 93.257,2.097 93.605,2.797 93.168 C 3.429 92.773,3.665 91.686,3.119 91.686 C 2.954 91.686,2.674 91.957,2.497 92.287 M0.810 98.394 C 0.556 99.057,0.570 99.145,0.932 99.145 C 1.103 99.145,1.243 98.946,1.243 98.702 C 1.243 98.458,1.488 98.195,1.787 98.116 C 2.216 98.004,2.190 97.967,1.665 97.938 C 1.299 97.918,0.914 98.123,0.810 98.394 M0.000 142.036 C 0.000 142.378,0.140 142.657,0.311 142.657 C 0.482 142.657,0.622 142.378,0.622 142.036 C 0.622 141.694,0.482 141.414,0.311 141.414 C 0.140 141.414,0.000 141.694,0.000 142.036 M0.622 148.355 C 0.622 148.640,0.770 148.873,0.951 148.873 C 1.132 148.873,1.193 149.013,1.088 149.184 C 0.982 149.355,1.135 149.495,1.428 149.495 C 1.915 149.495,1.910 149.434,1.372 148.796 C 1.049 148.411,0.747 148.038,0.703 147.967 C 0.658 147.896,0.622 148.070,0.622 148.355 M398.909 149.500 C 398.802 149.674,398.607 149.750,398.476 149.669 C 398.346 149.588,398.239 149.726,398.239 149.975 C 398.239 150.623,398.678 150.533,399.068 149.806 C 399.404 149.177,399.269 148.917,398.909 149.500 M7.148 169.990 C 7.148 170.581,7.761 171.562,8.130 171.562 C 8.369 171.562,8.367 171.440,8.122 171.145 C 7.931 170.915,7.847 170.655,7.936 170.567 C 8.024 170.479,7.883 170.230,7.622 170.014 C 7.270 169.722,7.148 169.715,7.148 169.990 M9.742 175.602 C 9.782 176.513,9.917 176.706,10.567 176.789 L 11.344 176.888 10.666 176.398 C 10.293 176.128,9.922 175.594,9.841 175.211 C 9.760 174.828,9.716 175.004,9.742 175.602 M14.923 186.073 C 14.920 186.448,15.068 186.846,15.250 186.959 C 15.759 187.274,15.787 187.022,15.337 186.169 C 14.944 185.424,14.927 185.420,14.923 186.073 M16.402 188.840 C 16.480 189.251,16.729 189.588,16.953 189.588 C 17.178 189.588,17.406 189.903,17.461 190.287 C 17.531 190.780,17.790 191.004,18.337 191.044 C 18.811 191.079,18.897 191.039,18.558 190.941 C 18.252 190.853,17.786 190.244,17.523 189.587 C 16.967 188.196,16.178 187.671,16.402 188.840 M21.587 196.658 C 21.680 196.900,21.756 197.157,21.756 197.228 C 21.756 197.300,21.896 197.358,22.067 197.358 C 22.238 197.358,22.378 197.102,22.378 196.788 C 22.378 196.475,22.162 196.219,21.898 196.219 C 21.612 196.219,21.487 196.396,21.587 196.658 M22.738 198.100 C 22.796 198.423,23.193 198.815,23.621 198.972 C 24.276 199.213,24.325 199.195,23.932 198.852 C 23.675 198.629,23.278 198.236,23.049 197.980 C 22.685 197.572,22.646 197.587,22.738 198.100 M25.186 200.679 C 25.162 201.464,25.804 202.642,26.255 202.642 C 26.516 202.642,26.729 202.805,26.729 203.004 C 26.729 203.204,26.801 203.295,26.890 203.206 C 26.978 203.118,26.839 202.640,26.581 202.144 C 26.322 201.649,26.105 201.383,26.098 201.554 C 26.091 201.725,25.885 201.515,25.641 201.088 C 25.397 200.660,25.192 200.477,25.186 200.679 M34.504 211.606 C 34.512 211.986,34.962 212.476,35.474 212.665 C 35.853 212.804,35.945 212.707,35.834 212.282 C 35.696 211.757,34.493 211.145,34.504 211.606 M43.517 219.969 C 43.514 220.354,43.652 220.668,43.823 220.668 C 44.212 220.668,44.212 220.338,43.823 219.736 C 43.579 219.359,43.521 219.403,43.517 219.969 M44.820 221.229 C 44.870 221.480,45.207 221.795,45.569 221.929 C 46.165 222.149,46.196 222.106,45.897 221.472 C 45.531 220.698,44.677 220.505,44.820 221.229 M47.266 222.795 C 47.253 223.025,47.508 223.283,47.835 223.368 C 48.161 223.453,48.505 223.819,48.599 224.180 C 48.694 224.541,48.858 224.750,48.964 224.644 C 49.261 224.346,48.517 223.155,48.034 223.155 C 47.797 223.155,47.534 222.980,47.447 222.766 C 47.330 222.474,47.285 222.481,47.266 222.795 M50.088 225.195 C 50.226 225.901,51.245 226.075,51.143 225.376 C 51.102 225.094,50.824 224.816,50.525 224.758 C 50.148 224.685,50.015 224.818,50.088 225.195 M196.659 225.255 C 196.360 225.321,196.115 225.505,196.115 225.664 C 196.115 226.061,196.964 226.027,197.216 225.620 C 197.478 225.196,197.337 225.104,196.659 225.255 M53.823 227.713 C 53.879 227.998,54.134 228.301,54.390 228.385 C 54.772 228.511,54.786 228.454,54.470 228.072 C 54.258 227.814,54.177 227.512,54.289 227.400 C 54.402 227.287,54.320 227.195,54.108 227.195 C 53.896 227.195,53.768 227.428,53.823 227.713 M56.359 229.060 C 56.395 229.609,56.615 229.866,57.110 229.936 C 57.494 229.991,57.809 230.247,57.809 230.506 C 57.809 231.082,58.500 230.903,58.668 230.284 C 58.765 229.922,58.733 229.916,58.497 230.251 C 58.261 230.588,58.171 230.573,58.017 230.174 C 57.913 229.903,57.554 229.681,57.219 229.681 C 56.838 229.681,56.552 229.419,56.459 228.982 C 56.326 228.366,56.314 228.375,56.359 229.060 M189.122 229.992 C 188.780 230.139,188.640 230.271,188.811 230.286 C 188.982 230.301,188.912 230.448,188.656 230.614 C 188.255 230.873,188.265 230.916,188.723 230.920 C 189.016 230.922,189.405 230.645,189.588 230.303 C 189.771 229.961,189.881 229.691,189.832 229.703 C 189.783 229.715,189.464 229.845,189.122 229.992 M59.564 231.140 C 59.931 231.212,60.325 231.577,60.440 231.952 C 60.572 232.386,60.707 232.489,60.812 232.235 C 61.051 231.653,60.324 230.918,59.558 230.967 L 58.897 231.009 59.564 231.140 M181.818 234.178 C 181.818 234.456,182.000 234.565,182.284 234.456 C 182.541 234.357,182.751 234.152,182.751 233.999 C 182.751 233.847,182.541 233.722,182.284 233.722 C 182.028 233.722,181.818 233.927,181.818 234.178 M67.133 235.431 C 67.133 235.688,67.191 235.897,67.263 235.897 C 67.334 235.897,67.604 235.978,67.862 236.077 C 68.214 236.213,68.289 236.096,68.162 235.611 C 67.969 234.873,67.133 234.726,67.133 235.431 M179.202 235.476 C 178.957 236.116,179.107 236.275,179.729 236.036 C 180.478 235.749,180.659 234.965,179.977 234.965 C 179.659 234.965,179.310 235.195,179.202 235.476 M70.240 236.984 C 70.641 237.411,71.050 237.671,71.149 237.563 C 71.248 237.455,71.154 237.304,70.940 237.228 C 70.726 237.151,70.552 236.891,70.552 236.649 C 70.552 236.406,70.318 236.208,70.031 236.208 C 69.600 236.208,69.636 236.342,70.240 236.984 M176.845 236.659 C 176.845 236.907,176.601 237.252,176.301 237.427 C 176.002 237.601,175.911 237.748,176.098 237.753 C 176.455 237.763,177.467 236.775,177.467 236.417 C 177.467 236.302,177.327 236.208,177.156 236.208 C 176.985 236.208,176.845 236.411,176.845 236.659 M75.835 239.474 C 75.835 239.997,76.525 240.381,77.111 240.186 C 77.311 240.119,77.105 239.823,76.655 239.528 C 75.937 239.058,75.835 239.051,75.835 239.474 M82.673 241.792 C 82.673 241.957,82.974 242.253,83.342 242.449 C 83.919 242.758,83.983 242.735,83.808 242.280 C 83.696 241.989,83.605 241.693,83.605 241.622 C 83.605 241.550,83.395 241.492,83.139 241.492 C 82.883 241.492,82.673 241.627,82.673 241.792 M163.481 242.113 C 163.056 242.908,163.510 242.912,164.457 242.124 L 165.190 241.513 164.502 241.502 C 164.123 241.496,163.664 241.772,163.481 242.113 M87.096 243.357 C 87.547 244.078,87.956 244.168,87.956 243.545 C 87.956 243.307,87.735 243.027,87.465 242.924 C 86.717 242.637,86.676 242.684,87.096 243.357 M159.751 243.368 C 159.751 243.904,159.846 243.949,160.373 243.667 C 160.715 243.484,160.995 243.200,160.995 243.035 C 160.995 242.870,160.715 242.735,160.373 242.735 C 159.955 242.735,159.751 242.942,159.751 243.368 M91.411 244.522 C 91.373 245.266,91.813 245.460,92.182 244.863 C 92.314 244.649,92.268 244.588,92.068 244.711 C 91.884 244.825,91.669 244.672,91.590 244.371 C 91.482 243.954,91.439 243.990,91.411 244.522 M155.400 244.618 C 155.400 244.970,155.540 245.172,155.711 245.066 C 155.882 244.960,156.022 244.672,156.022 244.426 C 156.022 244.180,155.882 243.978,155.711 243.978 C 155.540 243.978,155.400 244.266,155.400 244.618 M154.002 245.221 C 153.451 245.458,153.477 245.491,154.235 245.510 C 154.705 245.522,155.089 245.392,155.089 245.221 C 155.089 244.857,154.850 244.857,154.002 245.221 M149.378 246.010 C 149.274 246.282,149.048 246.417,148.876 246.311 C 148.703 246.204,148.563 246.265,148.563 246.446 C 148.563 246.818,149.065 246.840,149.914 246.506 C 150.413 246.309,150.428 246.231,150.028 245.898 C 149.657 245.590,149.531 245.612,149.378 246.010 M141.932 247.421 C 141.395 248.049,141.399 248.064,142.093 247.965 C 142.485 247.909,142.853 247.618,142.910 247.319 C 143.050 246.587,142.607 246.633,141.932 247.421 M105.909 247.928 C 106.295 248.002,106.855 247.999,107.152 247.921 C 107.449 247.844,107.133 247.783,106.449 247.786 C 105.765 247.790,105.522 247.853,105.909 247.928 M118.061 248.651 C 119.014 249.444,121.696 249.540,121.401 248.770 C 121.297 248.500,121.212 248.220,121.212 248.149 C 121.212 248.077,120.688 248.021,120.047 248.023 C 119.180 248.027,119.001 248.105,119.347 248.329 C 119.722 248.572,119.673 248.632,119.096 248.635 C 118.696 248.638,118.463 248.503,118.570 248.329 C 118.678 248.156,118.446 248.023,118.045 248.029 L 117.327 248.039 118.061 248.651 M126.810 248.469 C 126.385 248.704,125.931 248.831,125.800 248.750 C 125.670 248.669,125.563 248.752,125.563 248.933 C 125.563 249.114,126.053 249.262,126.651 249.262 C 127.532 249.262,127.739 249.143,127.739 248.640 C 127.739 247.913,127.795 247.924,126.810 248.469 M128.180 248.304 C 127.718 248.763,128.142 249.292,128.902 249.205 C 130.060 249.071,130.272 248.064,129.129 248.128 C 128.679 248.153,128.251 248.232,128.180 248.304 " stroke="none" fill="#f41909" fill-rule="evenodd"></path></g></svg>